<?xml version="1.0" encoding="UTF-8"?>
<svg id="Camada_2" data-name="Camada 2" xmlns="http://www.w3.org/2000/svg" viewBox="0 0 2758.81 505.21">
  <defs>
    <style>
      .cls-1 {
        fill: #ff0080;
      }

      .cls-1, .cls-2 {
        stroke-width: 0px;
      }

      .cls-2 {
        fill: #fff;
      }
    </style>
  </defs>
  <g id="Layer_1" data-name="Layer 1">
    <g>
      <g>
        <path class="cls-1" d="m17.15,393.71l7.24-14.47c6.14-12.29,7.4-25.13,7.4-40.64V67.93c0-13.23-.87-28.37-7.28-40.41l-7.84-14.71h149.18c111.23,0,201.72,85.43,201.72,190.45s-90.49,190.45-201.72,190.45H17.15Z"/>
        <path class="cls-2" d="m165.85,22.82c105.97,0,191.72,80.99,191.72,180.45s-85.75,180.45-191.72,180.45H33.33c7.19-14.37,8.46-29.04,8.46-45.11V67.93c0-15.41-1.2-31.51-8.46-45.11h132.52m36.66,233.51l14.65-8.46-56.39-97.67-14.65,8.46,56.39,97.67M165.85,2.82H33.33s-33.33,0-33.33,0l15.69,29.41c5.38,10.09,6.11,23.71,6.11,35.7v270.67c0,14.09-1.08,25.63-6.35,36.17l-14.47,28.94h164.88c28.44,0,56.06-5.26,82.07-15.63,25.17-10.04,47.8-24.42,67.25-42.74,19.52-18.39,34.86-39.83,45.6-63.73,11.15-24.83,16.81-51.19,16.81-78.35s-5.66-53.52-16.81-78.35c-10.73-23.89-26.08-45.34-45.59-63.73-19.45-18.32-42.07-32.7-67.24-42.74-26.01-10.37-53.63-15.63-82.07-15.63h0Z"/>
      </g>
      <g>
        <path class="cls-1" d="m577.49,393.71c-91.02,0-165.07-74.05-165.07-165.07V67.93c0-13.23-.87-28.37-7.28-40.41l-7.84-14.71h328.35v147.42l-14.47-7.24c-12.29-6.14-25.13-7.4-40.64-7.4h-29.79c8.56,4.51,14.42,13.5,14.42,23.83v91.5h15.38c15.95,0,28.31-1.24,40.64-7.4l14.47-7.24v147.42h-148.15Z"/>
        <path class="cls-2" d="m715.64,22.82v121.24c-14.37-7.19-29.04-8.46-45.11-8.46h-115.6v16.92h73.31c9.34,0,16.92,7.58,16.92,16.92v84.58h-78.94v16.92h104.32c16.35,0,30.74-1.27,45.11-8.46v121.24h-138.15c-85.6,0-155.07-69.47-155.07-155.07V67.93c0-15.41-1.2-31.51-8.46-45.11h301.68m20-20h-355.02l15.69,29.41c5.38,10.09,6.11,23.71,6.11,35.7v160.71c0,23.62,4.63,46.54,13.77,68.14,8.82,20.85,21.45,39.57,37.52,55.64,16.07,16.07,34.79,28.7,55.64,37.52,21.6,9.14,44.52,13.77,68.14,13.77h158.15v-173.6l-28.94,14.47c-10.57,5.29-21.68,6.35-36.17,6.35h-5.38v-81.5c0-4.89-.96-9.56-2.69-13.83h8.06c14.09,0,25.63,1.08,36.17,6.35l28.94,14.47V2.82h0Z"/>
      </g>
      <g>
        <path class="cls-1" d="m1086.4,495.21c-36.01,0-70.06-18.08-95.88-50.91-18.49-23.51-30.94-52.4-36.36-83.69v33.09h-170.11l7.24-14.47c6.14-12.29,7.4-25.13,7.4-40.64V67.93c0-13.23-.87-28.37-7.28-40.41l-7.84-14.71h213.89c27.78,0,54,8.36,73.85,23.54,20.64,15.79,32.01,37.01,32.01,59.77,0,24.23-11.92,46.85-33.55,63.7-10.75,8.37-23.27,14.81-36.89,19.08,21.57,4.2,41.38,13.46,57.46,27.09,23.01,19.5,35.68,45.56,35.68,73.39v54.7c0,35.47,16.29,80.93,52.07,96.92l9.31,4.16-4.34,9.23c-15.71,33.36-60.51,50.81-96.64,50.81Z"/>
        <path class="cls-2" d="m997.45,22.82c52.92,0,95.86,32.84,95.86,73.31,0,43.58-45.41,78.94-101.36,78.94h-31.01v11.28h45.11c60.9,0,109.96,41.73,109.96,93.04v54.7c0,40.04,18.42,88.36,57.99,106.05-13.02,27.66-52.47,45.07-87.59,45.07-67.62,0-125.32-72-125.32-160.71v-78.94h-16.92v138.15h-143.93c7.19-14.37,8.46-29.04,8.46-45.11V67.93c0-15.41-1.2-31.51-8.46-45.11h197.22m0-20h-230.56l15.69,29.41c5.38,10.09,6.11,23.71,6.11,35.7v270.67c0,14.09-1.08,25.63-6.35,36.17l-14.47,28.94h188.06c6.76,17.01,15.73,32.79,26.74,46.78,13.28,16.88,28.77,30.22,46.06,39.65,18.35,10,37.75,15.08,57.69,15.08s42.27-5.05,60.91-14.22c21.15-10.4,36.63-25.04,44.78-42.34l8.69-18.45-18.62-8.32c-31.71-14.17-46.15-55.44-46.15-87.79v-54.7c0-15.67-3.61-30.85-10.72-45.11-6.74-13.52-16.33-25.6-28.49-35.91-10.39-8.81-22.22-15.93-35.01-21.2,4.95-2.84,9.67-5.99,14.12-9.45,11.5-8.95,20.58-19.49,27.01-31.32,6.9-12.7,10.4-26.24,10.4-40.27s-3.38-26.17-10.04-38.21c-6.17-11.16-14.89-21.08-25.9-29.51-21.58-16.5-49.96-25.59-79.92-25.59h0Z"/>
      </g>
      <g>
        <path class="cls-1" d="m1483.94,495.21c-36.01,0-70.06-18.08-95.88-50.91-18.49-23.51-30.94-52.4-36.36-83.69v33.09h-170.11l7.24-14.47c6.14-12.29,7.4-25.13,7.4-40.64V67.93c0-13.23-.87-28.37-7.28-40.41l-7.84-14.71h213.89c27.78,0,54,8.36,73.85,23.54,20.64,15.79,32.01,37.01,32.01,59.77,0,24.23-11.92,46.85-33.55,63.7-10.75,8.37-23.27,14.81-36.89,19.08,21.57,4.2,41.38,13.46,57.46,27.09,23.01,19.5,35.68,45.56,35.68,73.39v54.7c0,35.47,16.29,80.93,52.07,96.92l9.31,4.16-4.34,9.23c-15.71,33.36-60.5,50.81-96.64,50.81Z"/>
        <path class="cls-2" d="m1394.99,22.82c52.92,0,95.86,32.84,95.86,73.31,0,43.58-45.41,78.94-101.36,78.94h-31.01v11.28h45.11c60.9,0,109.96,41.73,109.96,93.04v54.7c0,40.04,18.42,88.36,57.99,106.05-13.02,27.66-52.47,45.07-87.59,45.07-67.62,0-125.32-72-125.32-160.71v-78.94h-16.92v138.15h-143.93c7.19-14.37,8.46-29.04,8.46-45.11V67.93c0-15.41-1.2-31.51-8.46-45.11h197.22m0-20h-230.55l15.69,29.41c5.38,10.09,6.11,23.71,6.11,35.7v270.67c0,14.09-1.08,25.63-6.35,36.17l-14.47,28.94h188.06c6.76,17.01,15.73,32.79,26.74,46.78,13.28,16.88,28.77,30.22,46.06,39.65,18.35,10,37.75,15.08,57.69,15.08s42.27-5.05,60.91-14.22c21.15-10.4,36.63-25.04,44.78-42.34l8.69-18.45-18.62-8.32c-31.71-14.17-46.15-55.44-46.15-87.79v-54.7c0-15.67-3.61-30.85-10.72-45.11-6.74-13.52-16.33-25.6-28.49-35.91-10.39-8.81-22.22-15.93-35.01-21.2,4.95-2.84,9.67-5.99,14.12-9.45,11.5-8.95,20.58-19.49,27.01-31.32,6.9-12.7,10.4-26.24,10.4-40.27s-3.38-26.17-10.04-38.21c-6.17-11.16-14.89-21.08-25.9-29.51-21.58-16.5-49.96-25.59-79.92-25.59h0Z"/>
      </g>
      <g>
        <ellipse class="cls-1" cx="1753.2" cy="203.27" rx="190.45" ry="193.27"/>
        <path class="cls-2" d="m1753.2,20c99.57,0,180.45,82.07,180.45,183.27s-80.88,183.27-180.45,183.27-180.45-82.07-180.45-183.27,80.88-183.27,180.45-183.27m20.87,236.33l14.65-8.46-56.39-97.67-14.65,8.46,56.39,97.67M1753.2,0c-27.07,0-53.35,5.39-78.1,16.03-23.88,10.26-45.31,24.94-63.71,43.62-18.38,18.67-32.82,40.4-42.9,64.59-10.44,25.05-15.73,51.63-15.73,79.02s5.29,53.98,15.73,79.02c10.08,24.19,24.52,45.93,42.9,64.59,18.4,18.68,39.84,33.36,63.71,43.62,24.75,10.64,51.03,16.03,78.1,16.03s53.34-5.39,78.1-16.03c23.88-10.26,45.31-24.94,63.71-43.62,18.38-18.67,32.82-40.4,42.9-64.59,10.44-25.05,15.73-51.63,15.73-79.02s-5.29-53.98-15.73-79.02c-10.08-24.19-24.52-45.93-42.9-64.59-18.4-18.68-39.84-33.36-63.71-43.62-24.75-10.64-51.03-16.03-78.1-16.03h0Z"/>
      </g>
      <g>
        <path class="cls-1" d="m2197.13,478.3c-60.63,0-109.95-56.34-109.95-125.6v-218.38h-52.03c-22.15,0-36.55,4.81-49.71,16.62l-16.68,14.95V12.82h386.53v153.07l-16.68-14.95c-13.17-11.8-27.57-16.62-49.71-16.62h-52.03v182.85c0,32.91,13.64,74.17,51.93,91.28l9.31,4.16-4.34,9.23c-14.66,31.13-58.01,56.46-96.64,56.46Z"/>
        <path class="cls-2" d="m2345.29,22.82v120.67c-16.35-14.66-33.83-19.17-56.39-19.17h-62.03v192.85c0,40.04,18.28,82.73,57.85,100.41-13.02,27.66-52.47,50.71-87.59,50.71-55.17,0-99.95-51.79-99.95-115.6V124.32h-62.03c-22.56,0-40.04,4.51-56.39,19.17V22.82h366.53m20-20h-406.53v185.47l33.35-29.9c11.29-10.12,23.35-14.06,43.04-14.06h42.03v208.38c0,35.66,12.13,69.33,34.16,94.81,10.95,12.67,23.77,22.65,38.11,29.66,15.08,7.38,31.13,11.13,47.69,11.13,42.84,0,89.27-27.32,105.69-62.2l8.69-18.46-18.62-8.32c-33.96-15.18-46.01-53.74-46.01-82.15v-172.85h42.03c19.68,0,31.75,3.94,43.04,14.06l33.35,29.9V2.82h0Z"/>
      </g>
      <g>
        <path class="cls-1" d="m2629.07,421.86c-46.95,0-85.14-33.56-85.14-74.8v-2.42c-8.92,28.37-36.2,49.08-68.38,49.08h-135.09l122.91-328.44c2.44-6.53,3.63-12.04,3.63-16.84,0-7.24-2.65-13.03-8.33-18.22l-19.04-17.38h206.08l-19.05,17.39c-5.7,5.2-8.36,11.01-8.36,18.28,0,4.8,1.18,10.29,3.61,16.79l123.89,331.29-9.94,3.23c-41.92,13.62-74.41,22.06-106.78,22.06Z"/>
        <path class="cls-2" d="m2619.91,22.82c-8.71,7.95-11.61,16.93-11.61,25.66,0,7.16,1.95,14.15,4.24,20.3l120.23,321.51c-38.85,12.62-71.62,21.57-103.69,21.57-39.61,0-75.14-27.58-75.14-64.8v-98.68h56.39v-16.92h-138.72v16.92h65.41v76.13c0,32.68-27.54,59.21-61.46,59.21h-120.68l117.85-314.94c2.3-6.16,4.26-13.17,4.26-20.34,0-8.72-2.9-17.67-11.59-25.61h154.52m51.57-20h-257.65l38.08,34.77c3.61,3.29,5.08,6.43,5.08,10.84,0,3.58-.98,7.95-3,13.34l-117.85,314.93-10.11,27.01h149.51c25.54,0,48.37-11.49,63.32-29.42,4.9,13.01,13.37,24.8,24.96,34.48,17.84,14.89,41.01,23.09,65.24,23.09,33.69,0,67.02-8.63,109.87-22.55l19.87-6.46-7.32-19.57-120.23-321.51c-2-5.36-2.98-9.71-2.98-13.29,0-4.43,1.48-7.59,5.1-10.89l38.09-34.77h0Z"/>
      </g>
    </g>
  </g>
</svg>