<?xml version="1.0" encoding="UTF-8"?>
<svg id="Camada_2" data-name="Camada 2" xmlns="http://www.w3.org/2000/svg" viewBox="0 0 2438.6 502.36">
  <defs>
    <style>
      .cls-1 {
        fill: #fff;
      }

      .cls-1, .cls-2 {
        stroke-width: 0px;
      }

      .cls-2 {
        fill: #40e0d0;
      }
    </style>
  </defs>
  <g id="Layer_1" data-name="Layer 1">
    <g>
      <g>
        <path class="cls-2" d="m16.67,390.89l7.84-14.71c6.42-12.03,7.28-27.18,7.28-40.4V65.11c0-13.23-.87-28.37-7.28-40.4l-7.84-14.71h328.35v147.42l-14.47-7.24c-12.29-6.14-25.13-7.4-40.64-7.4h-27.69c7.34,4.13,12.31,12,12.31,21.01v94.32h15.38c15.51,0,28.35-1.26,40.64-7.4l14.47-7.24v147.42H16.67Z"/>
        <path class="cls-1" d="m335.02,20v121.24c-14.37-7.19-29.04-8.46-45.11-8.46h-118.42v16.92h78.94c7.78,0,14.1,6.32,14.1,14.1v87.4h-93.04v16.92h118.42c16.07,0,30.74-1.27,45.11-8.46v121.24H33.33c7.25-13.6,8.46-29.7,8.46-45.11V65.11c0-15.41-1.2-31.51-8.46-45.11h301.68M355.02,0H0l15.69,29.41c5.38,10.09,6.11,23.71,6.11,35.7v270.67c0,11.99-.73,25.61-6.11,35.7l-15.69,29.41h355.02v-173.6l-28.94,14.47c-10.53,5.27-22.08,6.35-36.17,6.35h-5.38v-84.32c0-3.85-.64-7.56-1.83-11.01h7.2c14.09,0,25.63,1.08,36.17,6.35l28.94,14.47V0h0Z"/>
      </g>
      <g>
        <path class="cls-2" d="m860.4,492.36c-33.98,0-67.44-18.26-91.8-50.1-24.05-31.43-37.54-73.08-38.13-117.54l-57.08,94.37h-24.9l-49.85-82.41c-1.93,30.15-27.29,54.22-57.81,54.22h-137.41l7.23-14.47c6.14-12.29,7.4-25.13,7.4-40.64V65.11c0-13.23-.87-28.37-7.28-40.4l-7.84-14.71h164.45l91.88,152.54L751.13,10h163.96l-7.24,14.47c-6.14,12.29-7.4,25.13-7.4,40.64v266.16c0,36.72,16.01,80.93,51.79,96.92l9.31,4.16-4.35,9.23c-15.71,33.34-60.59,50.78-96.8,50.78Z"/>
        <path class="cls-1" d="m898.91,20c-7.19,14.37-8.46,29.04-8.46,45.11v266.16c0,40.29,18.14,88.36,57.71,106.05-13.03,27.66-52.47,45.04-87.76,45.04-63.73,0-119.91-69.61-119.95-160.58l72.81-120.15-13.98-9.99-131.52,217.44h-13.63l-129.94-214.84-13.92,9.68,78.49,129.77c-.39,26.12-21.71,47.2-47.93,47.2h-121.23c7.19-14.37,8.46-29.04,8.46-45.11V65.11c0-15.41-1.2-31.51-8.46-45.11h142.13l97.53,161.92,97.53-161.92h142.13M931.27,0h-185.79l-5.83,9.68-80.39,133.48L578.86,9.68l-5.83-9.68h-186.76l15.69,29.41c5.38,10.09,6.11,23.71,6.11,35.7v270.67c0,14.09-1.08,25.63-6.35,36.17l-14.47,28.94h153.59c17.96,0,34.89-6.95,47.69-19.56,5.76-5.68,10.39-12.22,13.76-19.33l34.74,57.44,5.84,9.65h36.18l5.84-9.65,38.14-63.06c5.18,34.59,18.11,66.43,37.64,91.97,12.77,16.69,27.7,29.88,44.37,39.19,17.63,9.84,36.26,14.84,55.37,14.84,20.71,0,42.38-5.04,61.04-14.2,21.17-10.39,36.66-25.02,44.81-42.32l8.7-18.46-18.63-8.33c-31.52-14.09-45.87-55.39-45.87-87.79V65.11c0-14.09,1.08-25.63,6.35-36.17l14.47-28.94h0Z"/>
      </g>
      <g>
        <path class="cls-2" d="m1091.91,475.48c-60.63,0-109.95-53.81-109.95-119.96V65.11c0-13.23-.87-28.37-7.28-40.4l-7.84-14.71h211.21c80.14,0,145.33,57.61,145.33,128.42s-65.2,128.42-145.33,128.42h-11.28c-15.73,0-29.26-9.55-35.11-23.16v70.68c0,35.5,16.25,80.97,51.93,96.92l9.31,4.16-4.35,9.23c-15.71,33.36-60.51,50.81-96.64,50.81Z"/>
        <path class="cls-1" d="m1178.04,20c74.7,0,135.34,53.05,135.34,118.42s-60.63,118.42-135.34,118.42h-11.28c-15.56,0-28.19-12.63-28.19-28.19v-101.5h-16.92v187.21c0,40.04,18.28,88.36,57.85,106.05-13.03,27.66-52.47,45.07-87.59,45.07-55.17,0-99.95-49.26-99.95-109.96V65.11c0-15.41-1.2-31.51-8.46-45.11h194.54m0-20h-227.88l15.69,29.41c5.38,10.09,6.11,23.71,6.11,35.7v290.41c0,34.34,12.25,66.73,34.49,91.19,10.98,12.08,23.81,21.58,38.13,28.25,14.99,6.98,30.91,10.51,47.33,10.51,20.64,0,42.27-5.05,60.91-14.22,21.15-10.4,36.63-25.04,44.78-42.34l8.69-18.46-18.62-8.32c-31.61-14.13-46.01-55.41-46.01-87.79v-44.59c7.32,4.48,15.92,7.07,25.11,7.07h11.28c40.98,0,79.63-14.08,108.85-39.64,14.46-12.66,25.85-27.45,33.85-43.99,8.38-17.34,12.64-35.77,12.64-54.79s-4.25-37.45-12.64-54.79c-8-16.53-19.38-31.33-33.85-43.99-29.22-25.57-67.88-39.65-108.85-39.65h0Z"/>
      </g>
      <g>
        <path class="cls-2" d="m1588.7,419.04c-46.95,0-85.14-33.56-85.14-74.8v-2.42c-8.92,28.37-36.2,49.08-68.38,49.08h-135.09l122.91-328.44c2.44-6.53,3.63-12.04,3.63-16.84,0-7.24-2.65-13.03-8.33-18.22l-19.04-17.38h206.08l-19.04,17.39c-5.7,5.2-8.36,11.01-8.36,18.28,0,4.8,1.18,10.29,3.61,16.79l123.89,331.29-9.94,3.23c-41.92,13.62-74.41,22.06-106.78,22.06Z"/>
        <path class="cls-1" d="m1579.54,20c-8.71,7.95-11.61,16.93-11.61,25.66,0,7.16,1.95,14.15,4.24,20.29l120.23,321.51c-38.85,12.62-71.62,21.57-103.69,21.57-39.61,0-75.14-27.58-75.14-64.8v-98.68h56.39v-16.92h-138.72v16.92h65.41v76.13c0,32.68-27.54,59.21-61.46,59.21h-120.68l117.85-314.94c2.3-6.16,4.26-13.17,4.26-20.34,0-8.72-2.9-17.67-11.59-25.61h154.52m51.57-20h-257.65l38.08,34.77c3.61,3.29,5.08,6.43,5.08,10.84,0,3.58-.98,7.95-3,13.34l-117.85,314.93-10.11,27.01h149.51c25.54,0,48.37-11.49,63.32-29.42,4.9,13.01,13.37,24.8,24.96,34.48,17.84,14.89,41.01,23.09,65.24,23.09,33.69,0,67.02-8.63,109.87-22.55l19.87-6.46-7.32-19.57-120.23-321.51c-2-5.36-2.98-9.71-2.98-13.29,0-4.43,1.48-7.59,5.1-10.89L1631.11,0h0Z"/>
      </g>
      <g>
        <path class="cls-2" d="m1918.01,475.48c-60.63,0-109.95-56.34-109.95-125.6v-218.38h-52.03c-22.15,0-36.55,4.81-49.71,16.62l-16.68,14.95V10h386.53v153.07l-16.68-14.95c-13.17-11.8-27.57-16.62-49.71-16.62h-52.03v182.85c0,32.91,13.64,74.17,51.93,91.28l9.31,4.16-4.34,9.23c-14.66,31.13-58.01,56.46-96.64,56.46Z"/>
        <path class="cls-1" d="m2066.17,20v120.67c-16.35-14.66-33.83-19.17-56.39-19.17h-62.03v192.85c0,40.04,18.28,82.73,57.85,100.41-13.02,27.66-52.47,50.71-87.59,50.71-55.17,0-99.95-51.79-99.95-115.6V121.5h-62.03c-22.56,0-40.04,4.51-56.39,19.17V20h366.53m20-20h-406.53v185.47l33.35-29.9c11.29-10.12,23.35-14.06,43.04-14.06h42.03v208.38c0,35.66,12.13,69.33,34.16,94.81,10.95,12.67,23.77,22.65,38.11,29.66,15.08,7.38,31.13,11.13,47.69,11.13,42.84,0,89.27-27.32,105.69-62.2l8.69-18.46-18.62-8.32c-33.96-15.18-46.01-53.74-46.01-82.15v-172.85h42.03c19.68,0,31.75,3.94,43.04,14.06l33.35,29.9V0h0Z"/>
      </g>
      <g>
        <path class="cls-2" d="m2280.45,390.89c-91.02,0-165.07-74.05-165.07-165.07V65.11c0-13.23-.87-28.37-7.28-40.4l-7.84-14.71h328.35v147.42l-14.47-7.24c-12.29-6.14-25.13-7.4-40.64-7.4h-29.79c8.56,4.51,14.42,13.5,14.42,23.83v91.5h15.38c15.95,0,28.31-1.24,40.64-7.4l14.47-7.24v147.42h-148.15Z"/>
        <path class="cls-1" d="m2418.6,20v121.24c-14.37-7.19-29.04-8.46-45.11-8.46h-115.6v16.92h73.31c9.34,0,16.92,7.58,16.92,16.92v84.58h-78.94v16.92h104.32c16.35,0,30.74-1.27,45.11-8.46v121.24h-138.15c-85.6,0-155.07-69.47-155.07-155.07V65.11c0-15.41-1.2-31.51-8.46-45.11h301.68m20-20h-355.02l15.69,29.41c5.38,10.09,6.11,23.71,6.11,35.7v160.71c0,23.61,4.63,46.54,13.77,68.14,8.82,20.85,21.45,39.57,37.52,55.64,16.07,16.07,34.79,28.7,55.64,37.52,21.6,9.14,44.52,13.77,68.14,13.77h158.15v-173.6l-28.94,14.47c-10.57,5.29-21.67,6.35-36.17,6.35h-5.38v-81.5c0-4.89-.96-9.56-2.69-13.83h8.06c14.09,0,25.63,1.08,36.17,6.35l28.94,14.47V0h0Z"/>
      </g>
    </g>
  </g>
</svg>