<?xml version="1.0" encoding="UTF-8"?>
<svg id="Camada_2" data-name="Camada 2" xmlns="http://www.w3.org/2000/svg" xmlns:xlink="http://www.w3.org/1999/xlink" viewBox="0 0 3134.35 574.5">
  <defs>
    <style>
      .cls-1 {
        fill: #fff;
      }

      .cls-1, .cls-2 {
        stroke-width: 0px;
      }

      .cls-2 {
        fill: url(#Gradiente_sem_nome_33);
      }
    </style>
    <linearGradient id="Gradiente_sem_nome_33" data-name="Gradiente sem nome 33" x1="689.32" y1="-565.66" x2="2371.68" y2="1116.71" gradientUnits="userSpaceOnUse">
      <stop offset="0" stop-color="#fff"/>
      <stop offset="0" stop-color="#40e0d0"/>
      <stop offset=".5" stop-color="#ff8c00"/>
      <stop offset="1" stop-color="#ff0080"/>
    </linearGradient>
  </defs>
  <g id="Layer_1" data-name="Layer 1">
    <g>
      <path class="cls-2" d="m1268.47,564.5c-35.46,0-68.67-17.19-93.5-48.4-16.59-20.85-28.09-46.32-33.72-74.04v26.25h-162.49l7.24-14.47c5.78-11.56,6.96-23.67,6.96-38.29V158.98c0-12.47-.81-26.75-6.84-38.06l-7.84-14.71h162.97v43.29c3.41-9.35,8.94-17.79,16.37-24.75,12.76-11.96,29.97-18.54,48.46-18.54h101.71l-7.24,14.47c-5.78,11.56-6.96,23.67-6.96,38.29v16.04c0,26.57-11.95,50.99-33.65,68.76-11.03,9.03-24.12,15.94-38.52,20.47,19.65,4.23,37.55,12.84,52.05,25.22,21.6,18.46,33.49,43.3,33.49,69.96v51.85c0,34.64,15.08,76.33,48.78,91.4l9.31,4.16-4.34,9.23c-14.98,31.8-57.73,48.44-92.23,48.44Zm1253.76-16.01c-57.76,0-104.75-51.25-104.75-114.23V158.98c0-12.48-.81-26.75-6.84-38.06l-7.84-14.71h201.08c76.25,0,138.29,54.84,138.29,122.25s-62.04,122.25-138.29,122.25h-10.69c-14.29,0-26.69-8.2-32.76-20.14v64.66c0,33.49,15.31,76.38,48.92,91.4l9.31,4.16-4.34,9.23c-14.98,31.82-57.66,48.47-92.08,48.47Zm421.07-77.51c-99.83,0-181.05-82.42-181.05-183.72s81.22-183.72,181.05-183.72,181.05,82.42,181.05,183.72-81.22,183.72-181.05,183.72Zm-2445.47,0c-99.83,0-181.05-82.42-181.05-183.72s81.22-183.72,181.05-183.72,181.05,82.42,181.05,183.72-81.22,183.72-181.05,183.72Zm-360.27,0c-45.09,0-88.79-18.01-119.89-49.42l-5.28-5.33,47.48-85.52h27.98c17.77,0,32.23-14.7,32.23-32.76v-83.54h-39.18c-20.85,0-34.4,4.52-46.78,15.62l-16.68,14.95V106.22h271.93l-7.24,14.47c-5.69,11.38-6.83,23.08-6.83,38.29v173.72c0,76.25-61.8,138.29-137.75,138.29Zm1814.93-2.67l-30.51-50.46c-2.54,28.2-26.44,50.46-55.21,50.46h-147.67l7.24-14.47c5.78-11.56,6.96-23.66,6.96-38.29V158.98c0-12.48-.81-26.75-6.84-38.06l-7.84-14.71h157.58l47.93,79.58v-34.84c0-77.73,52.44-140.96,116.91-140.96,34.42,0,77.09,16.65,92.08,48.47l4.35,9.23-9.31,4.16c-33.52,14.98-48.78,57.88-48.78,91.4v252.3c0,12.48.81,26.75,6.84,38.06l7.84,14.71h-141.55Zm-428.36,0c-86.57,0-157-70.43-157-157v-152.34c0-12.48-.81-26.75-6.84-38.06l-7.84-14.71h312.64v141.11l-14.47-7.24c-11.56-5.78-23.67-6.96-38.29-6.96h-26.29c7.35,4.61,12.24,12.78,12.24,22.07v86.21h14.05c15.04,0,26.7-1.16,38.29-6.96l14.47-7.24v141.1h-140.96Zm823.76-113.46c-11.08-6-25.43-6.81-38-6.81h-122.94c-12.57,0-26.92.81-38,6.81l-14.76,8v-151.17l14.76,8c11.08,6,25.43,6.81,38,6.81h122.94c12.57,0,26.92-.81,38-6.81l14.76-8v151.18l-14.76-8ZM709.66,211.68l14.76,8c11.08,6,25.43,6.81,38,6.81h122.94c12.57,0,26.92-.81,38-6.81l14.76-8v151.17l-14.76-8c-11.08-6-25.43-6.81-38-6.81h-122.94c-12.57,0-26.92.81-38,6.81l-14.76,8v-151.18Z"/>
      <path class="cls-1" d="m2041.02,20c32.99,0,70.42,15.95,83.03,42.73-36.9,16.5-54.7,62.02-54.7,100.53v252.3c0,14.61,1.14,29.87,8.02,42.76h-119.24l-129.59-214.34-13.19,9.17,96.86,160.2c-.25,24.86-20.51,44.97-45.43,44.97h-131.49c6.81-13.63,8.02-27.53,8.02-42.76V158.98c0-14.61-1.14-29.87-8.02-42.76h135.26l116.65,193.68,11.86-11.38-64.93-107.81v-39.74c0-72.74,48.34-130.96,106.91-130.96m902.28,93.54c94.38,0,171.05,77.79,171.05,173.72s-76.67,173.72-171.05,173.72-171.05-77.79-171.05-173.72,76.67-173.72,171.05-173.72m19.78,224.02l13.89-8.02-53.45-92.58-13.89,8.02,53.45,92.58M497.83,113.54c94.38,0,171.05,77.79,171.05,173.72s-76.67,173.72-171.05,173.72-171.05-77.79-171.05-173.72,76.67-173.72,171.05-173.72m19.78,224.02l13.89-8.02-53.45-92.58-13.89,8.02,53.45,92.58M2603.88,116.22c70.81,0,128.29,50.29,128.29,112.25s-57.47,112.25-128.29,112.25h-10.69c-14.75,0-26.73-11.97-26.73-26.73v-96.22h-16.04v177.46c0,37.95,17.33,83.76,54.83,100.53-12.35,26.22-49.74,42.73-83.03,42.73-52.3,0-94.75-46.7-94.75-104.23V158.98c0-14.61-1.14-29.87-8.02-42.76h184.41m-948.79,0v114.92c-13.63-6.81-27.53-8.02-42.76-8.02h-109.58v16.04h69.49c8.85,0,16.04,7.18,16.04,16.04v80.18h-74.83v16.04h98.89c15.5,0,29.14-1.2,42.76-8.02v114.92h-130.96c-81.14,0-147-65.86-147-147v-152.34c0-14.61-1.14-29.87-8.02-42.76h285.98m-363.48,0c-6.81,13.63-8.02,27.53-8.02,42.76v16.04c0,48.69-45.22,85.52-104.23,85.52h-48.11v10.69h61.47c59.01,0,104.23,39.51,104.23,88.2v51.85c0,38.19,17.2,83.76,54.7,100.53-12.35,26.22-49.74,42.7-83.18,42.7-66.89,0-121.19-68.24-121.19-152.31v-77.51h-16.04v133.63h-136.31c6.81-13.63,8.02-27.53,8.02-42.76V158.98c0-14.61-1.14-29.87-8.02-42.76h136.31v96.22h16.04v-40.09c0-32.61,26.19-56.13,58.8-56.13h85.52m-1018.41,0c-6.81,13.63-7.89,27.26-7.89,42.76v173.72c0,70.81-57.23,128.29-127.75,128.29-45.79,0-85.83-19.24-112.79-46.46l40.98-73.81h22.1c23.34,0,42.23-19.19,42.23-42.76v-93.54h-49.18c-21.38,0-37.95,4.28-53.45,18.17v-106.37h245.75m2079.46,112.25v117.6c-12.83-6.95-28.33-8.02-42.76-8.02h-122.94c-14.43,0-29.93,1.07-42.76,8.02v-117.6c12.83,6.95,28.33,8.02,42.76,8.02h122.94c14.43,0,29.93-1.07,42.76-8.02m-1424.52,0v117.6c-12.83-6.95-28.33-8.02-42.76-8.02h-122.94c-14.43,0-29.93,1.07-42.76,8.02v-117.6c12.83,6.95,28.33,8.02,42.76,8.02h122.94c14.43,0,29.93-1.07,42.76-8.02M2041.02,0c-17.56,0-34.58,4.19-50.59,12.46-15.16,7.83-28.71,18.95-40.29,33.05-23.01,28.04-35.79,65.04-36.03,104.31l-26.46-43.92-5.83-9.68h-179.9l15.69,29.41c4.99,9.36,5.67,22.11,5.67,33.35v256.57c0,13.59-.99,23.98-5.91,33.82l-14.47,28.94h163.86c17.35,0,33.71-6.73,46.04-18.95,5.07-5.02,9.22-10.73,12.36-16.91l15.85,26.21,5.84,9.65h163.86l-15.69-29.41c-4.99-9.36-5.66-22.11-5.66-33.35v-252.3c0-30.39,13.41-69.1,42.86-82.27l18.62-8.32-8.69-18.45c-7.92-16.83-22.86-30.96-43.21-40.87-17.66-8.6-38.23-13.34-57.92-13.34h0Zm902.28,93.54c-25.8,0-50.85,5.14-74.44,15.28-22.76,9.78-43.19,23.77-60.73,41.57-17.52,17.79-31.28,38.5-40.89,61.56-9.95,23.87-14.99,49.21-14.99,75.31s5.04,51.44,14.99,75.31c9.61,23.06,23.37,43.77,40.89,61.56,17.54,17.81,37.97,31.8,60.73,41.58,23.59,10.14,48.64,15.28,74.44,15.28s50.85-5.14,74.44-15.28c22.76-9.78,43.19-23.77,60.73-41.58,17.52-17.79,31.28-38.5,40.89-61.56,9.95-23.87,14.99-49.21,14.99-75.31s-5.04-51.44-14.99-75.31c-9.61-23.06-23.37-43.77-40.89-61.56-17.54-17.81-37.97-31.8-60.73-41.57-23.59-10.14-48.64-15.28-74.44-15.28h0Zm-2445.47,0c-25.8,0-50.85,5.14-74.44,15.28-22.76,9.78-43.19,23.77-60.73,41.57-17.52,17.79-31.28,38.5-40.89,61.56-9.95,23.87-14.99,49.21-14.99,75.31s5.04,51.44,14.99,75.31c9.61,23.06,23.37,43.77,40.89,61.56,17.54,17.81,37.97,31.8,60.73,41.58,23.59,10.14,48.64,15.28,74.44,15.28s50.85-5.14,74.44-15.28c22.76-9.78,43.19-23.77,60.73-41.58,17.52-17.79,31.28-38.5,40.89-61.56,9.95-23.87,14.99-49.21,14.99-75.31s-5.04-51.44-14.99-75.31c-9.61-23.06-23.37-43.77-40.89-61.56-17.54-17.81-37.97-31.8-60.73-41.57-23.59-10.14-48.64-15.28-74.44-15.28h0Zm2106.05,2.67h-217.75l15.69,29.41c4.99,9.36,5.67,22.11,5.67,33.35v275.28c0,32.81,11.71,63.76,32.96,87.15,10.5,11.55,22.77,20.64,36.48,27.02,14.34,6.68,29.59,10.06,45.31,10.06,19.72,0,40.39-4.82,58.2-13.58,20.26-9.97,35.1-24.01,42.93-40.62l8.69-18.46-18.62-8.32c-29.54-13.2-43-51.9-43-82.27v-40.45c6.74,3.78,14.5,5.93,22.76,5.93h10.69c39.09,0,75.98-13.44,103.87-37.84,13.82-12.09,24.7-26.23,32.34-42.03,8.02-16.58,12.08-34.2,12.08-52.39s-4.06-35.81-12.08-52.39c-7.64-15.8-18.52-29.94-32.34-42.03-27.89-24.4-64.77-37.84-103.87-37.84h0Zm-928.79,0h-339.31l15.68,29.41c4.99,9.36,5.67,22.11,5.67,33.35v152.34c0,22.53,4.42,44.39,13.14,64.99,8.41,19.89,20.46,37.74,35.79,53.07,15.33,15.33,33.19,27.37,53.07,35.79,20.6,8.72,42.47,13.14,64.99,13.14h150.96v-167.28l-28.94,14.47c-9.84,4.92-20.23,5.91-33.82,5.91h-4.05v-76.22c0-4.23-.73-8.3-2.08-12.07h6.13c13.58,0,23.98.99,33.82,5.91l28.94,14.47V96.22h0Zm-351.12,0h-117.89c-20.82,0-40.27,7.38-54.83,20.81v-20.81h-189.64l15.69,29.41c4.99,9.36,5.67,22.11,5.67,33.35v256.57c0,13.58-.99,23.98-5.91,33.82l-14.47,28.94h179.11c6.46,16.03,15,30.88,25.45,44.01,12.85,16.15,27.92,28.89,44.78,37.86,17.86,9.5,36.89,14.32,56.55,14.32s40.5-4.82,58.32-13.56c20.28-9.95,35.14-24,42.96-40.61l8.69-18.45-18.62-8.33c-29.45-13.17-42.86-51.88-42.86-82.27v-51.85c0-29.63-13.14-57.18-36.99-77.56-9.03-7.72-19.26-14.08-30.36-18.97,5.92-3.35,11.5-7.15,16.67-11.39,24.06-19.7,37.32-46.87,37.32-76.49v-16.04c0-13.58.99-23.98,5.91-33.82l14.47-28.94h0Zm-1018.41,0H7.44v171.17l33.35-29.9c10.49-9.4,21.73-13.07,40.1-13.07h29.18v73.54c0,12.55-9.97,22.76-22.23,22.76h-33.87l-5.71,10.29L7.28,404.82l-7.28,13.12,10.56,10.66c32.97,33.29,79.26,52.38,127,52.38,39.46,0,76.57-15.44,104.49-43.48,27.9-28.01,43.26-65.24,43.26-104.81v-173.72c0-14.1.95-24.16,5.77-33.82l14.47-28.94h0Zm2067.09,98.67l-29.53,15.99c-9.12,4.94-21.92,5.6-33.24,5.6h-122.94c-11.32,0-24.12-.67-33.24-5.6l-29.53-15.99v184.75l29.52-15.99c9.12-4.94,21.92-5.6,33.24-5.6h122.94c11.32,0,24.12.67,33.24,5.6l29.53,15.99v-184.76h0Zm-1424.52,0l-29.53,15.99c-9.12,4.94-21.92,5.6-33.24,5.6h-122.94c-11.32,0-24.12-.67-33.24-5.6l-29.53-15.99v184.76l29.53-15.99c9.12-4.94,21.92-5.6,33.24-5.6h122.94c11.32,0,24.12.67,33.24,5.6l29.53,15.99v-184.76h0Z"/>
    </g>
  </g>
</svg>