<?xml version="1.0" encoding="UTF-8"?>
<svg xmlns="http://www.w3.org/2000/svg" xmlns:xlink="http://www.w3.org/1999/xlink" viewBox="0 0 339.35 531.59">
  <defs>
    <style>
      .cls-1 {
        fill: url(#_Áåçûìÿííûé_ãðàäèåíò_151);
      }

      .cls-1, .cls-2, .cls-3, .cls-4, .cls-5, .cls-6, .cls-7, .cls-8, .cls-9, .cls-10, .cls-11, .cls-12, .cls-13, .cls-14, .cls-15, .cls-16, .cls-17, .cls-18, .cls-19, .cls-20 {
        stroke-width: 0px;
      }

      .cls-2 {
        fill: url(#_Áåçûìÿííûé_ãðàäèåíò_59-2);
      }

      .cls-2, .cls-13 {
        mix-blend-mode: screen;
      }

      .cls-3 {
        fill: #f5ee8f;
      }

      .cls-3, .cls-9 {
        mix-blend-mode: soft-light;
        opacity: .97;
      }

      .cls-4, .cls-6, .cls-7, .cls-10, .cls-15, .cls-16, .cls-17, .cls-19, .cls-20 {
        mix-blend-mode: multiply;
      }

      .cls-4, .cls-10, .cls-15 {
        fill: #f3bac0;
      }

      .cls-4, .cls-15, .cls-19, .cls-20 {
        opacity: .6;
      }

      .cls-5 {
        fill: url(#_Áåçûìÿííûé_ãðàäèåíò_152-3);
      }

      .cls-6 {
        opacity: .5;
      }

      .cls-6, .cls-7, .cls-16, .cls-17 {
        fill: #d87290;
      }

      .cls-7, .cls-8, .cls-10, .cls-15, .cls-16, .cls-19, .cls-20 {
        fill-rule: evenodd;
      }

      .cls-7, .cls-10 {
        opacity: .2;
      }

      .cls-21 {
        isolation: isolate;
      }

      .cls-8 {
        fill: #b24d61;
      }

      .cls-9 {
        fill: #f5ffff;
      }

      .cls-11 {
        fill: #fff;
      }

      .cls-12 {
        fill: url(#_Áåçûìÿííûé_ãðàäèåíò_152-4);
      }

      .cls-13 {
        fill: url(#_Áåçûìÿííûé_ãðàäèåíò_59);
      }

      .cls-14 {
        fill: url(#_Áåçûìÿííûé_ãðàäèåíò_152);
      }

      .cls-16 {
        opacity: .3;
      }

      .cls-17 {
        opacity: .31;
      }

      .cls-18 {
        fill: url(#_Áåçûìÿííûé_ãðàäèåíò_152-2);
      }

      .cls-19 {
        fill: url(#_Áåçûìÿííûé_ãðàäèåíò_409);
      }

      .cls-20 {
        fill: url(#_Áåçûìÿííûé_ãðàäèåíò_55);
      }
    </style>
    <linearGradient id="_Áåçûìÿííûé_ãðàäèåíò_151" data-name="Áåçûìÿííûé ãðàäèåíò 151" x1="708.86" y1="-8469.43" x2="708.86" y2="-9218.65" gradientTransform="translate(-4071.71 8182.23) rotate(23.68)" gradientUnits="userSpaceOnUse">
      <stop offset=".02" stop-color="#ffb880"/>
      <stop offset="1" stop-color="#ff8777"/>
    </linearGradient>
    <linearGradient id="_Áåçûìÿííûé_ãðàäèåíò_152" data-name="Áåçûìÿííûé ãðàäèåíò 152" x1="730.31" y1="-8871.3" x2="841.88" y2="-8982.87" gradientTransform="translate(-4071.71 8182.23) rotate(23.68)" gradientUnits="userSpaceOnUse">
      <stop offset="0" stop-color="#ff8777"/>
      <stop offset=".98" stop-color="#ffb880"/>
    </linearGradient>
    <linearGradient id="_Áåçûìÿííûé_ãðàäèåíò_152-2" data-name="Áåçûìÿííûé ãðàäèåíò 152" x1="595.2" y1="-8969.82" x2="595.2" y2="-9126.91" xlink:href="#_Áåçûìÿííûé_ãðàäèåíò_152"/>
    <linearGradient id="_Áåçûìÿííûé_ãðàäèåíò_152-3" data-name="Áåçûìÿííûé ãðàäèåíò 152" x1="669.91" y1="-8993.03" x2="669.91" y2="-9223.18" xlink:href="#_Áåçûìÿííûé_ãðàäèåíò_152"/>
    <linearGradient id="_Áåçûìÿííûé_ãðàäèåíò_152-4" data-name="Áåçûìÿííûé ãðàäèåíò 152" x1="738.16" y1="-8986.91" x2="738.16" y2="-9186.14" xlink:href="#_Áåçûìÿííûé_ãðàäèåíò_152"/>
    <linearGradient id="_Áåçûìÿííûé_ãðàäèåíò_55" data-name="Áåçûìÿííûé ãðàäèåíò 55" x1="758.81" y1="-9108.92" x2="758.81" y2="-9111.33" gradientTransform="translate(-4071.71 8182.23) rotate(23.68)" gradientUnits="userSpaceOnUse">
      <stop offset="0" stop-color="#b060f4"/>
      <stop offset="1" stop-color="#ffeadb"/>
    </linearGradient>
    <linearGradient id="_Áåçûìÿííûé_ãðàäèåíò_409" data-name="Áåçûìÿííûé ãðàäèåíò 409" x1="-2586.1" y1="-9140.47" x2="-2586.1" y2="-9142.33" gradientTransform="translate(-5865.88 7394.85) rotate(-156.32) scale(1 -1)" gradientUnits="userSpaceOnUse">
      <stop offset="0" stop-color="#ffeadb"/>
      <stop offset=".99" stop-color="#b060f4"/>
    </linearGradient>
    <linearGradient id="_Áåçûìÿííûé_ãðàäèåíò_59" data-name="Áåçûìÿííûé ãðàäèåíò 59" x1="-3973.31" y1="-3610.81" x2="-3852.76" y2="-3610.81" gradientTransform="translate(1820.42 5408.61) rotate(29.15)" gradientUnits="userSpaceOnUse">
      <stop offset="0" stop-color="#000"/>
      <stop offset=".04" stop-color="#0b0300"/>
      <stop offset=".4" stop-color="#6a1e00"/>
      <stop offset=".69" stop-color="#b03200"/>
      <stop offset=".89" stop-color="#db3f00"/>
      <stop offset="1" stop-color="#ec4400"/>
    </linearGradient>
    <linearGradient id="_Áåçûìÿííûé_ãðàäèåíò_59-2" data-name="Áåçûìÿííûé ãðàäèåíò 59" x1="2054.75" y1="18275.63" x2="2167.33" y2="18275.63" gradientTransform="translate(-2262.18 8852.89) rotate(-150.85) scale(1 .48)" xlink:href="#_Áåçûìÿííûé_ãðàäèåíò_59"/>
  </defs>
  <g class="cls-21">
    <g id="Camada_2" data-name="Camada 2">
      <g id="Layer_1" data-name="Layer 1">
        <g>
          <g>
            <path class="cls-11" d="m242.07.77c-1.73.34-3.4.75-4.97,1.22-.98.23-1.93.52-2.81.88l-.26.16c-8.56,3.29-12.8,8.38-15.52,13.1-4.42-1.85-9.61-2.99-14.56-2.58-6.06.51-11.06,3.19-14.49,7.76-1.4,1.74-11.83,14.98-22.33,36.64,0,0,0,0,0,.01-.15.28-.3.56-.44.85-.09.18-.18.37-.26.56-2.44,5.19-4.54,10.09-6.36,14.84.46-5.16-1.93-11.43-10.18-15.84-11-5.89-31.85-7.11-41.08,5.93-5.74,7.36-18.44,38.82-18.57,39.15-5.29,13.04-5.82,27.34-5.82,32.56v.17l-24.83,63.39c-.64,1.53-7.92,18.85-16.08,40.39l-.09.24c-.09.27-.2.54-.31.82-.17.42-.34.86-.5,1.32-16.43,43.45-24.93,72.94-25.25,87.67l1.07,4.27,23.42,41.65c-4.95,18.95-30.17,115.25-41.84,155.67h17.35c13.42-47.14,40.21-149.84,41.48-154.72l-.8-6.19-23.88-42.48c1.11-13.5,9.58-41.69,24.08-80.04l.06-.15c.11-.31.23-.6.34-.89.18-.47.36-.92.52-1.36,8.37-22.09,15.77-39.63,15.85-39.8l.08-.21,25.47-65.02.57-3.39c0-.14-.51-15.07,4.59-27.64,6.68-16.59,14.17-32.43,16.15-35l-.07.09.6-.77c1.34-1.96,4.65-3.18,8.86-3.26,5.24-.1,9.79,1.57,11.73,2.88l-2.15,5.5c-2.69,6.9-5.9,15.13-9.37,23.96l.02.09-9.87,25.2c-12.43,31.73-24.47,62.42-24.47,62.42l4.27,10.62,15.02,6.94,11.14-4.22.29-.65-.24-.63,39.05-88.1.67-2.56c.79-8.07,2.61-16.52,5.41-25.17l.43.1.12-.36c.14-.44.29-.87.43-1.31l.03-.03c.2-.45.35-.91.46-1.37,1.98-5.59,4.39-11.38,7.36-17.67l.11-.24c-.03.06-.07.15-.12.24l.17-.35h0s-.01.02-.02.03l.03-.05c.13-.23.25-.45.36-.68,10.13-20.92,20.3-33.48,20.4-33.6l.27-.35c.26-.36.75-1.03,2.56-1.18,3.82-.32,8.91,2.06,10.3,3.4h.18s12.12-.74,12.12-.74l.19-.24-.07.09-.57-.47,1.67-.19c.76-1.37,1.38-2.7,1.99-3.98,2.21-4.66,3.54-7.47,9.08-9.53l.37-.22h0s.11-.03.31-.08l.76-.19c1.12-.34,2.34-.65,3.62-.9,8.48-1.67,12.54,1.64,13.58,2.69,1.11,1.12,1.5,2.26,1.39,2.89-2.73,11.79-9.37,26.59-17.07,43.72-7.67,17.07-16.35,36.42-22.6,56.45l-.04.1c-16.97,54.62-34.3,106.78-34.47,107.3l4.56,10.27,6.27,2.75,10.96-4.22.15-.32-.21-.69,32.02-71.02.61-1.95s.24-1.34.6-3.64l-2.97-.46,3.18-1.87c-.4-3.72,3.83-23.64,13.01-46.77,11.64-29.33,21.16-38.55,24.57-39.33,9.29-2.12,15.64,1.98,17.67,4.21-2.77,10.86-9.87,31.93-21.11,62.69l-.89,2.32c-13.32,36.6-30.22,80.05-43.46,113.83l-.03.08c-2.18,5.5-4.23,10.72-6.14,15.56-2.54,6.45-4.83,12.24-6.79,17.17v.03s-7.22,18.15-7.22,18.15l7.03,2.8-1.58,8.31,17.26,4.93,9.12-3.24,12.61-18.01,1.51-4.59c.35-14.87,1.77-33.19,3.36-37.09,1.2-1.79,7.81-8.53,17.4-15.04,11.36-7.72,19.25-9.83,22.84-9.23,9.15,1.53,16.62,5.62,20.41,8.49-3.13,3.69-9.78,11.1-23.76,25.58l-.14.08c-16.59,17.32-25.79,28.59-29.85,36.55-.34.69-.67,1.35-1,2.05l-.21.45c-.26.54-.53,1.11-.8,1.71l-.23.49c-.28.61-.57,1.25-.87,1.91l-.16.35c-2.03,4.51-4.34,9.92-6.79,15.66-5.49,12.85-11.7,27.41-18.36,40.55l-.05.1c-.46.91-.9,1.77-1.35,2.63l-.14.27c-.43.83-.88,1.68-1.33,2.53-2.98,5.56-5.81,10.32-8.45,14.18l-.03.05c-2.45,3.58-4.74,6.42-6.79,8.43-.08.07-.19.19-.32.3l-.03.04-.19.15c-.18.16-.37.3-.56.45-.2.15-.41.31-.63.45l-.05.06-.17.08c-.17.12-.35.23-.53.34l-.27.17c-.19.12-.4.23-.61.35l-.11.06c-1.19.66-2.61,1.29-4.2,1.88-.43.16-.79.29-1.17.42l-.13.04c-.82.28-1.64.54-2.44.76-3.03.86-6.5,1.59-10.33,2.19l-.26.04c-.66.1-1.37.2-2.1.3l-.26.04h0s-.13.02-.13.02h0c-2.16.28-4.46.53-7.04.75l-.41.03c-1.84.15-3.82.29-5.82.39h0s-.23.01-.23.01c-.8.04-1.6.08-2.39.11l-1.19.05c-.64.02-1.27.04-1.91.06h-.39c-.55.03-1.1.04-1.65.06-.21,0-.52,0-.82.01h-.91c-.38.02-.77.02-1.16.03h-.05c-.59,0-1.19,0-1.77.01h-.58c-1.55,0-3.05-.01-4.53-.03l-2.78-.04c-.29,0-.59-.01-.9-.02l-2.41-.07c-.67-.02-1.33-.04-1.97-.07l-1.32-.04c-.45-.02-.9-.04-1.35-.06l-3.93-.19c-2.43-.14-4.93-.3-7.39-.49l-.66-.05c-2.36-.18-4.04-.34-4.97-.43l-.66-.06-8.05,3.79c-.44.7-.86,1.41-1.28,2.13l-.49.83c-.29.49-.58.99-.86,1.49-.49.88-.94,1.76-1.39,2.65l-.21.41c-.16.31-.33.63-.48.95-.52,1.07-1.02,2.16-1.5,3.25l-.1.21c-.1.22-.2.43-.3.65-.59,1.35-1.16,2.73-1.7,4.11-.16.39-.31.81-.47,1.22-.16.4-.31.81-.46,1.25-.17.45-.32.89-.47,1.35-.06.19-.13.38-.19.57l-.46,1.4c-.15.47-.29.94-.44,1.41-.27.9-.55,1.82-.82,2.79-.17.6-.35,1.23-.53,1.86l-.47,1.73,8.02,2.29-8.05-2.18-.2.75c-.16.59-.31,1.18-.46,1.78l-.06.25c-.16.61-.34,1.32-.52,2.03l-.07.27c-.48,1.93-.97,3.93-1.45,5.99l-.14.61c-.13.56-.26,1.12-.39,1.69v.05c-.12.46-.23.92-.33,1.39-.22.96-.44,1.92-.65,2.9-.33,1.45-.65,2.91-.96,4.38l-.08.38c-.29,1.36-.56,2.66-.84,3.96l-.08.38c-.39,1.71-6.21,25.95-11.84,49.39-1.31,5.46-2.52,10.5-3.64,15.17h17.15c.92-3.82,1.83-7.6,2.71-11.27,8.15-33.96,11.75-48.94,11.94-49.85l.08-.4c.28-1.29.55-2.59.82-3.86l.08-.38c.31-1.44.61-2.84.93-4.23l.02-.1c.2-.92.4-1.81.61-2.7l.04-.17c.08-.39.17-.77.26-1.16l.03-.12c.14-.6.26-1.12.38-1.64l.14-.61c.46-1.96.93-3.88,1.39-5.73l.07-.26c.17-.66.33-1.32.5-1.95l.07-.27c.14-.53.28-1.08.42-1.62l.65-2.39c.16-.59.32-1.16.48-1.71.26-.89.51-1.73.75-2.55.12-.4.25-.82.38-1.22l.65-1.97c.08-.25.17-.5.26-.73l.1-.28c.07-.22.15-.42.23-.62l.04-.12c.12-.32.24-.64.36-.94l.04-.1c.47-1.2.96-2.4,1.47-3.58l.33-.71c.41-.92.82-1.83,1.26-2.72.09-.18.18-.36.28-.54l.3-.58c.23-.46.47-.92.71-1.38.24.02.5.04.75.06l.75.06c2.57.2,5.19.37,7.79.51l3.01.15c.16,0,.35.02.54.02l.52.02c.42.02.85.04,1.29.06l1.53.05c.65.02,1.35.05,2.05.07l2.62.08c.24,0,.48,0,.73.01l2.87.05h0s.16,0,.16,0c1.55.02,3.13.03,4.74.03h.7c.62,0,1.18,0,1.73,0h.42c.3-.02.6-.02.9-.02h.89c.37-.01.74-.02,1.12-.03.57-.02,1.07-.03,1.56-.04h.46c.69-.03,1.37-.05,2.05-.08l.67-.02c.14,0,.31-.01.48-.02h.14c.84-.04,1.69-.08,2.54-.13h.24s0-.01,0-.01h.03c2.17-.12,4.32-.26,6.38-.43l.41-.04c2.8-.24,5.36-.51,7.77-.83h.09s.02-.01.02-.01l.39-.05c.81-.11,1.6-.22,2.4-.34l.28-.05c4.44-.69,8.58-1.57,12.23-2.6,1.04-.29,2.15-.63,3.25-1.01.61-.2,1.2-.41,1.79-.63,2.31-.85,4.49-1.83,6.42-2.89.4-.22.97-.53,1.58-.91.54-.32,1.01-.62,1.44-.93h0c.47-.31.92-.65,1.36-.97l.09-.07c.45-.35.88-.69,1.3-1.05h0c.5-.42.92-.81,1.29-1.17,2.92-2.86,5.83-6.44,8.94-10.99l.03-.05.02-.03h0c3-4.41,6.13-9.65,9.34-15.65.5-.94.98-1.85,1.46-2.77l.13-.24c.48-.92.95-1.83,1.41-2.76l.08-.15c6.89-13.61,13.5-29.09,18.8-41.52,2.42-5.66,4.7-11,6.66-15.37l.15-.34c.27-.6.54-1.2.81-1.78l.22-.47c.24-.52.49-1.04.73-1.55l.18-.38c.31-.64.59-1.22.86-1.76,4.7-9.22,21.34-26.62,26.93-32.46l.13-.08c28.99-30.03,29.52-32.46,30.14-35.28.45-2.03.46-5.23-2.03-8.91-4.6-6.8-18.56-15.38-33.99-17.95-9.41-1.56-21.3,2.53-35.36,12.16-4.79,3.28-9.5,7.03-13.39,10.57,11.69-29.98,24.9-64.31,35.77-94.16l.88-2.3c12.06-32.96,19.25-54.48,21.98-65.73,1.34-4.09.12-8.81-3.44-13.11-6.22-7.52-19.28-13.57-34.44-10.11-4.32.99-8.64,3.7-12.94,8.12,6.44-14.49,11.79-27.28,14.38-38.56l.04-.17c1.3-6.28-.89-13.03-5.86-18.05-6.82-6.9-17.27-9.57-28.66-7.33Zm-.98,275.21c-.5,6.4-.78,12.96-.94,18.37l-7.76,11.09-2.65-.76,3.82-9.59v-.03c1.97-4.96,4.26-10.76,6.8-17.22.24-.61.48-1.23.73-1.85Zm-86.61-185.97c-1.72,6.52-2.92,12.94-3.61,19.19l-33.08,74.64c4.66-11.89,11.93-30.44,19.34-49.36l.03-.08,9.86-25.2-.02-.09c2.68-6.84,5.22-13.32,7.47-19.1Zm8.99-15.84l-4.55,4.46.23-.59c.15-.36.28-.73.39-1.12,1-1.28,2.37-2.25,3.93-2.76Z"/>
            <path class="cls-11" d="m143.64,71.9l-.02.05s.01-.03.02-.05Z"/>
            <path class="cls-11" d="m167.05,58.12l-.12.25c.04-.08.08-.17.12-.25Z"/>
            <path class="cls-11" d="m218.56,318.5v-1.04s0,1.04,0,1.04Z"/>
            <path class="cls-11" d="m297.35,74.24l-.35,1.05c.08-.34.19-.69.35-1.05Z"/>
          </g>
          <g>
            <path class="cls-1" d="m262.47,24.12c-5.76,25.09-21.67,61.96-33.93,101.29l-.02.05c-17.19,55.33-34.52,107.46-34.52,107.46l6.27,2.75,32.22-71.47s.23-1.27.57-3.45c1.62-9.21,6.31-34.36,12.08-43.67,7.12-11.47,27.71-45.58,32.59-50.18,7.14-6.74,29.13,6.44,27.27,10.69-2.86,12.07-11.31,36.57-21.81,65.27,0,0-.17.4-.46,1.18-.13.29-.29.65-.4,1.07-13.53,37.17-30.56,80.92-43.56,114.07l-.02.05c-5.08,12.83-9.5,24.11-12.95,32.76l-7.24,18.18,17.26,4.93,12.61-18.01s.81-34.74,4.42-40.98c3.59-6.31,32.42-31.16,48.89-28.42,16.51,2.76,30.07,13.09,29.24,16.85-.47,2.12-12.67,15.4-28,31.28l-.08.03c-12.05,12.59-24.06,25.97-28.45,34.57-9.8,19.61-29.73,75.48-48.15,93.53-.28.27-.57.54-.88.8,0,.02-.03.04-.05.05-.31.26-.62.51-.95.77-.33.24-.67.49-1.02.73,0,.01-.02.02-.04.02-.36.25-.73.49-1.12.72-.38.25-.78.47-1.19.69-1.62.9-3.42,1.7-5.36,2.41-.49.18-.98.36-1.49.52-.93.32-1.9.62-2.89.9-1.73.49-3.54.93-5.42,1.33-.93.2-1.88.37-2.85.55-1.05.19-2.13.37-3.23.55-.88.14-1.77.26-2.67.38-.01,0-.02-.01-.03,0-1.01.13-2.03.25-3.06.37-.51.05-1.03.11-1.55.16-.52.06-1.03.12-1.56.15-.52.05-1.04.09-1.56.14-2.09.18-4.19.32-6.29.43-.52.03-1.05.05-1.58.07-.53.03-1.08.06-1.62.08-1.03.03-2.07.07-3.09.1-.52.01-1.05.02-1.56.04-.52.01-1.04.01-1.55.02-.48,0-.97,0-1.46.03-.63,0-1.26,0-1.88.01-1.87,0-3.71,0-5.52-.03-.9,0-1.79-.02-2.67-.05-.3,0-.58-.01-.87-.02-.8-.02-1.59-.04-2.37-.07-1.2-.04-2.37-.08-3.5-.12-.53-.03-1.06-.05-1.58-.07-.25-.01-.51-.02-.77-.03-1.03-.05-2.02-.1-2.98-.15-6.46-.36-11.28-.79-13.27-.99-.13,0-.25-.01-.36-.02-.43-.04-.66-.07-.66-.07-3.04,4.76-5.51,9.95-7.58,15.26-.13.33-.27.68-.4,1.05-.14.35-.28.73-.41,1.12-.14.39-.29.78-.42,1.2-.27.78-.54,1.6-.81,2.48-.33,1.07-.67,2.2-1.01,3.39-.21.73-.42,1.49-.64,2.26-.34,1.24-.69,2.53-1.03,3.87-.3,1.15-.6,2.33-.9,3.55-.55,2.22-1.1,4.52-1.63,6.9-.11.47-.22.94-.33,1.43-.22.94-.43,1.89-.64,2.87-.34,1.49-.67,2.99-.99,4.5-.29,1.38-.59,2.77-.89,4.17-.02.11-.04.22-.06.34-.23,1.06-7.9,32.99-15.07,62.86H8.68c13.38-46.72,42.08-156.83,42.08-156.83l-25.07-44.58c.38-16.99,13.35-54.87,24.74-84.97.3-.83.62-1.58.87-2.31,8.54-22.56,16.01-40.2,16.01-40.2l25.47-65.02s-.69-16.62,5.19-31.12c5.83-14.47,14.57-33.87,17.52-37.26,6.47-7.46,37.81.33,35.89,5.71-3.11,7.97-7.39,18.98-12.16,31.11l.04.04c-14.97,38.24-34.35,87.67-34.35,87.67l15.02,6.94.13-.29,39.24-88.53c1.01-10.32,3.49-20.41,6.75-29.85q.08-.03.04-.1c2.36-6.75,5.13-13.23,7.93-19.18l.02-.05c.09-.2.17-.4.32-.57,0-.18.13-.3.2-.46,10.76-22.24,21.48-35.3,21.48-35.3,6.67-9.11,22.02-2.66,25.8,1.59,3.97-7.22,15.6-17.43,15.6-17.43,8.58-3.51,26.8,5.01,25.03,13.52Z"/>
            <path class="cls-14" d="m302.98,275.81l-.08.03c-12.05,12.59-24.06,25.97-28.45,34.57-8.43,16.84-24.31,60.44-40.31,83.83,3.79-33.56-15.59-84.08-15.59-84.08l17.26,4.93,12.61-18.01s.81-34.74,4.42-40.98c3.59-6.31,32.42-31.16,48.89-28.42,16.51,2.76,30.07,13.09,29.24,16.85-.47,2.12-12.67,15.4-28,31.28Z"/>
            <path class="cls-18" d="m104.9,193.84l-37.59,8.86,25.47-65.02s-.69-16.62,5.19-31.12c5.83-14.47,15-33.57,17.52-37.26,9.11-13.34,40.25-5.08,35.89,5.71-3.2,7.93-7.39,18.98-12.16,31.11l.04.04c-14.97,38.24-34.35,87.67-34.35,87.67Z"/>
            <path class="cls-5" d="m166.09,82c2.36-6.75,5.13-13.23,7.93-19.18l.02-.05c.09-.2.17-.4.32-.57,0-.18.13-.3.2-.46,10.76-22.24,21.48-35.3,21.48-35.3,6.67-9.11,22.02-2.66,25.8,1.59,3.97-7.22,5.15-15.79,21.83-19.07,16.43-3.23,26.51,6.99,24.74,15.5-5.76,25.09-27.61,61.62-39.88,100.95l-.02.05c-17.19,55.33-34.52,107.46-34.52,107.46l-73.95-32.43,39.24-88.53c1.01-10.32,3.49-20.41,6.75-29.85q.08-.03.04-.1Z"/>
            <path class="cls-12" d="m233.06,160.75c-2.47-11.01,22.36-90.93,43.9-95.85,17.85-4.08,29.89,8.44,28.03,12.69-2.86,12.07-11.31,36.57-21.81,65.27,0,0-.17.4-.46,1.18-.13.29-.29.65-.4,1.07l-.1.27c-13.51,37.12-30.49,80.74-43.45,113.8l-.02.05-38.47-23.56,32.22-71.47s1.07-1.23.57-3.45Z"/>
            <path class="cls-15" d="m121.31,323.93s52.71-21.36,97.26-13.77l7.24-18.16s-89.79-58.4-129.94-50.11c0,0-11.18,34.45-7.46,49.03,3.72,14.58,32.9,33,32.9,33Z"/>
            <path class="cls-20" d="m282.72,144.04c.29-.78.46-1.18.46-1.18l-.86,2.25c.12-.42.27-.78.4-1.07Z"/>
            <path class="cls-10" d="m238.49,258.6l-.02.05-32.74-20.06-.03-.02-5.7-3.49,26.13-57.97,6.09-13.51s.23-1.27.57-3.45c1.21.94,16.72,12.59,26.65,15.03,8.54,2.1,19.21-22.3,22.5-30.41l-43.45,113.8Z"/>
            <path class="cls-7" d="m193.73,232.34l-73.94-32.43,37.89-85.48,1.35-3.05c1.01-10.32,3.49-20.41,6.75-29.85-1.43,6.78-1.81,14.56.69,22.54l22.58,3.57s23-68.57,32.53-80.18c0,0-20.95,50.54-27,82.61,0,0,13.82,27.64,33.67,14.83-3.49,11.24-6.99,22.34-10.35,32.91-13.16,41.45-24.17,74.54-24.17,74.54Z"/>
            <path class="cls-19" d="m174.57,61.75c-.21.33-.36.68-.52,1.03.49-.8.86-1.35,1.03-1.58l-.51.55Z"/>
            <path class="cls-10" d="m104.9,193.84l-7.88,1.85h0s-29.71,7.01-29.71,7.01l25.47-65.02,16.27,7.03,30.17-38.58.04.04c-3.16,8.09-6.54,16.68-9.87,25.2l-.02.04c-12.43,31.73-24.47,62.43-24.47,62.43Z"/>
            <path class="cls-16" d="m218.57,310.17s-48.94-9.65-85.83,9.73c0,0,33.64-31.19,93.07-27.89l-7.24,18.16Z"/>
            <path class="cls-4" d="m135.83,405.81c9.74,5.08,46.28,6.07,75.47,5.74-27.71,7.88-75.51,2.78-75.51,2.78-.18.29-.38.59-.56.89-2.8,4.51-5.09,9.39-7.03,14.37-3.32,8.23-14.7,55.78-25.23,101.99h-3.82c9.44-50.84,20.66-106.3,26.48-118.65,2.11-4.48,4.47-7.3,7.11-7.71.98-.15,2.01.03,3.08.59Z"/>
            <path class="cls-6" d="m211.31,411.55c-27.71,7.88-75.51,2.78-75.51,2.78-.18.29-3.04-9.1-3.04-9.1h0c.98-.16,2.01.02,3.08.58,9.74,5.08,46.28,6.07,75.47,5.74Z"/>
            <path class="cls-13" d="m93.12,349.05c-6,7.29,61.23,36.57,97.98,34.26,25.58-1.61,26.9-10.11,28.28-14.78,1.38-4.67-1.88-34.06-22.29-42.24-20.41-8.18-86.79,1.93-103.97,22.77Z"/>
            <path class="cls-2" d="m189.12,239.7c3.59-3.07-50.68-28.1-78.93-34.99-14.97-3.65-48.76,12.47-34.62,17.98,20.35,7.93,103.3,25.8,113.56,17.01Z"/>
            <path class="cls-9" d="m163.04,403.91s28.91,2.67,34.74,1.93c5.83-.74,21.49-.58,25.58-6.07,4.09-5.49,28.54-49.45,28.54-49.45,0,0-26.16,41.64-34.13,48.12-7.97,6.48-54.73,5.47-54.73,5.47Z"/>
            <path class="cls-9" d="m19.57,531.59h-5.35c17.11-62.34,40.83-143.24,40.83-143.24,0,0-21.05,81.14-35.48,143.24Z"/>
            <path class="cls-9" d="m55.25,264.07s-19.17,38.75-20.93,53.67c-1.76,14.92,13.09,34.65,13.09,34.65,0,0-9.16-16.89-6.37-37.26,2.79-20.37,14.21-51.07,14.21-51.07Z"/>
            <path class="cls-3" d="m301.88,78.4s-21.36-3.51-34.41-.46c0,0,7.66-8.88,16.57-9.01,8.91-.13,17.84,9.47,17.84,9.47Z"/>
            <path class="cls-9" d="m264.48,83.32s-20.42,47.24-21.75,75.47c0,0-1.27-25.45,6.18-47.51,7.45-22.06,15.57-27.96,15.57-27.96Z"/>
            <path class="cls-3" d="m146.91,73.14s-16.75-2.76-26.98-.36c0,0,6.05-6.66,12.99-7.06,9.63-.56,16.43,7,13.99,7.43Z"/>
            <path class="cls-9" d="m117.58,77s-16.02,37.05-17.06,59.19c0,0-1-19.96,4.85-37.26,5.85-17.3,12.21-21.93,12.21-21.93Z"/>
            <path class="cls-3" d="m264.42,22.09s-22.12-2.64-35.07-.17c0,0,7.34-8.22,16.25-8.03s18.82,8.2,18.82,8.2Z"/>
            <path class="cls-3" d="m219.32,27.93c-1.76-1.04-3.61-1.94-5.45-2.48-7.82-2.28-14.96,2.35-14.96,2.35,5.18.53,11.9,2.3,17.74,4.09.75-1.42,1.65-2.74,2.68-3.96Z"/>
            <path class="cls-9" d="m197.82,31.65s-23.75,40.4-30.58,66.52c0,0,4.11-23.51,14.79-44.04,10.68-20.54,15.79-22.48,15.79-22.48Z"/>
            <path class="cls-3" d="m323.66,243.89s-14.96-9.41-25.41-12.27c0,0,10.74-.57,17.38,2.46,6.64,3.04,8.03,9.8,8.03,9.8Z"/>
            <path class="cls-9" d="m320.73,246.92s-29.28,27.43-51.23,34.79c0,0,20.8-4.59,35.32-15.67,14.52-11.08,15.91-19.12,15.91-19.12Z"/>
            <path class="cls-9" d="m96.73,531.59h-3.12c9.79-47.21,21.92-98.27,32.47-120.88,0,0-15.42,62.23-29.35,120.88Z"/>
            <path class="cls-8" d="m183.82,139.39l-24.96,78.12-5.46-2.4c12.8-18.71,19.23-46.03,30.42-75.72Z"/>
            <path class="cls-16" d="m183.82,139.39l-24.96,78.12-20.09-8.81c2.87-4.19,14.56-5.89,14.56-5.89l39.74-98.16-9.24,34.74Z"/>
            <path class="cls-16" d="m217.81,246.41l-11.85-7.25-5.7-3.49,32.23-71.47c-10.57,33.95-22.45,69.42-14.68,82.21Z"/>
            <path class="cls-16" d="m129.37,131.41c-12.43,31.73-24.47,62.43-24.47,62.43l-7.88,1.85c9.83-16.03,20.92-39.2,32.35-64.28Z"/>
            <path class="cls-16" d="m130.19,204.94l-10.14-4.45,37.89-85.48c-11.92,31.44-21.35,61.52-27.75,89.93Z"/>
            <path class="cls-17" d="m34.9,311.02s19.33,30.95,68.14,54.57c48.83,23.63,111.7,22.24,111.7,22.24,22.83-31.37,3.81-77.67,3.81-77.67l17.26,4.93,12.61-18.01s.81-34.74,4.42-40.98c-1.11,12.07,12.17,29.13,16,30.68,3.72,1.51,32.25-10.19,34.05-10.95-12.05,12.59-24.06,25.97-28.45,34.57-9.8,19.61-29.73,75.48-48.15,93.53-.28.27-.57.54-.88.8,0,.02-.03.04-.05.05-.31.26-.62.51-.95.77-.33.24-.67.49-1.02.73,0,.01-.02.02-.04.02-.36.25-.73.49-1.12.72-.38.25-.78.47-1.19.69-1.62.9-3.42,1.7-5.36,2.41-.49.18-.98.36-1.49.52-.93.32-1.9.62-2.89.9-1.73.49-3.54.93-5.42,1.33-.93.2-1.88.37-2.85.55-1.05.19-2.13.37-3.23.55-.87.13-1.77.26-2.67.38-.01,0-.02-.01-.03,0-1.01.13-2.03.25-3.06.37-.51.05-1.03.11-1.55.16-.52.06-1.03.12-1.56.15-.52.05-1.04.09-1.56.14-2.09.18-4.19.32-6.29.43-.52.03-1.05.05-1.58.07-.53.03-1.08.06-1.62.08-1.03.03-2.07.07-3.09.1-.52.01-1.05.02-1.56.04-.52.01-1.04.01-1.55.02-.48,0-.97,0-1.46.03-.63,0-1.26,0-1.88.01-1.87,0-3.71,0-5.52-.03-.9,0-1.79-.02-2.67-.05-.3,0-.58-.01-.87-.02-.8-.02-1.59-.04-2.37-.07-1.2-.04-2.37-.08-3.5-.12-.53-.03-1.06-.05-1.58-.07-.25-.01-.51-.02-.77-.03-1.03-.05-2.02-.1-2.98-.15-6.46-.36-11.28-.79-13.27-.99-.13,0-.25-.01-.36-.02-.43-.04-.66-.07-.66-.07-3.04,4.76-5.51,9.95-7.58,15.26-.13.33-.27.68-.4,1.05-.14.35-.28.73-.41,1.12-.14.39-.29.78-.42,1.2-.27.78-.54,1.6-.81,2.48-.33,1.07-.67,2.2-1.01,3.39-.21.73-.42,1.49-.64,2.26-.34,1.24-.69,2.53-1.03,3.87-.3,1.15-.59,2.35-.9,3.55-.55,2.22-1.1,4.52-1.63,6.9-.11.47-.21.95-.33,1.43-.21.95-.43,1.91-.64,2.87-.34,1.49-.67,2.99-.99,4.5-.29,1.38-.59,2.77-.89,4.17-.02.11-.04.22-.06.34-.23,1.06-7.9,32.99-15.07,62.86H8.68c13.39-46.72,42.08-156.83,42.08-156.83l-25.07-44.58c.38-16.99,13.35-54.87,24.74-84.97-7.9,21.99-15.53,65.82-15.53,65.82Z"/>
            <path class="cls-16" d="m193.73,232.34l-29.21-12.81c1.66-1.2,17.94,1.03,17.94,1.03l15.02-20.04,20.42-42.72c-13.16,41.45-24.17,74.54-24.17,74.54Z"/>
          </g>
        </g>
      </g>
    </g>
  </g>
</svg>