<?xml version="1.0" encoding="UTF-8"?>
<svg xmlns="http://www.w3.org/2000/svg" xmlns:xlink="http://www.w3.org/1999/xlink" viewBox="0 0 320.74 441.66">
  <defs>
    <style>
      .cls-1 {
        fill: #f5af8f;
      }

      .cls-1, .cls-2, .cls-3, .cls-4, .cls-5, .cls-6, .cls-7, .cls-8, .cls-9, .cls-10, .cls-11, .cls-12, .cls-13, .cls-14, .cls-15 {
        stroke-width: 0px;
      }

      .cls-1, .cls-3, .cls-5, .cls-8, .cls-13 {
        mix-blend-mode: soft-light;
        opacity: .97;
      }

      .cls-2 {
        fill: url(#_Áåçûìÿííûé_ãðàäèåíò_151);
      }

      .cls-3 {
        fill: #f5ee8f;
      }

      .cls-4 {
        fill: #f3bac0;
        opacity: .6;
      }

      .cls-4, .cls-6, .cls-12, .cls-14 {
        mix-blend-mode: multiply;
      }

      .cls-5 {
        fill: #f5d3d2;
      }

      .cls-6 {
        opacity: .5;
      }

      .cls-6, .cls-12, .cls-14 {
        fill: #d87290;
      }

      .cls-16 {
        isolation: isolate;
      }

      .cls-7 {
        fill: url(#_Áåçûìÿííûé_ãðàäèåíò_54);
        mix-blend-mode: screen;
      }

      .cls-8 {
        fill: #f5ffff;
      }

      .cls-9 {
        fill: #e86c7c;
      }

      .cls-10 {
        fill: #fff;
      }

      .cls-11 {
        fill: url(#_Áåçûìÿííûé_ãðàäèåíò_152);
      }

      .cls-12 {
        opacity: .3;
      }

      .cls-13 {
        fill: #f5a995;
      }

      .cls-14 {
        opacity: .31;
      }

      .cls-15 {
        fill: #ab3d52;
      }
    </style>
    <linearGradient id="_Áåçûìÿííûé_ãðàäèåíò_152" data-name="Áåçûìÿííûé ãðàäèåíò 152" x1="121.12" y1="-288.1" x2="121.12" y2="-448.05" gradientTransform="translate(166.3 457.56) rotate(-162.84) scale(1 -1)" gradientUnits="userSpaceOnUse">
      <stop offset="0" stop-color="#ff8777"/>
      <stop offset=".98" stop-color="#ffb880"/>
    </linearGradient>
    <linearGradient id="_Áåçûìÿííûé_ãðàäèåíò_151" data-name="Áåçûìÿííûé ãðàäèåíò 151" x1="89.44" y1="3.6" x2="89.44" y2="-425.19" gradientTransform="translate(166.3 457.56) rotate(-162.84) scale(1 -1)" gradientUnits="userSpaceOnUse">
      <stop offset=".02" stop-color="#ffb880"/>
      <stop offset="1" stop-color="#ff8777"/>
    </linearGradient>
    <linearGradient id="_Áåçûìÿííûé_ãðàäèåíò_54" data-name="Áåçûìÿííûé ãðàäèåíò 54" x1="-22.87" y1="-273.41" x2="172.67" y2="-273.41" gradientTransform="translate(166.3 457.56) rotate(-162.84) scale(1 -1)" gradientUnits="userSpaceOnUse">
      <stop offset="0" stop-color="#ec4400"/>
      <stop offset=".11" stop-color="#db3f00"/>
      <stop offset=".31" stop-color="#b03200"/>
      <stop offset=".6" stop-color="#6a1e00"/>
      <stop offset=".96" stop-color="#0b0300"/>
      <stop offset="1" stop-color="#000"/>
    </linearGradient>
  </defs>
  <g class="cls-16">
    <g id="Camada_2" data-name="Camada 2">
      <g id="Layer_1" data-name="Layer 1">
        <g>
          <path class="cls-10" d="m109.57,441.66l8.2-6.96c11.5-68.08,26.07-143.29,30.93-153.54,9.19-8.65,55.8-23.7,86.88-31.88,23.83-3.53,43.73-17.23,48.56-27.98,1.91-4.23,4.56-14.44,8.73-30.75l1.37-5.34c2.24-8.75,5.1-19.62,7.29-26.02,2.69-7.9,7.51-17.21,11.39-24.69,4.61-8.91,7.04-13.73,7.62-17.58.37-2.45.24-5.3-.38-8.46-.92-6.62-3.01-11.79-6.24-15.39-.79-1.19-1.6-2.23-2.42-3.1-2.1-2.25-6.51-5.17-18.58-12.91-5.93-3.8-12.48-8.01-18.7-12.21.67-3.18,1.1-5.58,1.31-7.25,1.93-15.27-7.59-41.65-17.56-48.66-10.14-7.13-36.3-7.67-49.11-1.01-1.72.9-3.26,2.01-4.62,3.19-2.88-2.4-6.65-4.97-11.48-7.29-3.38-1.62-7.28-2.71-11.59-3.22-18.75-3.01-29.88,5.99-32.4,8.31-.94.79-1.8,1.63-2.59,2.5-7.48-1-20.56-1.75-33.13,2.4-10.77,3.08-15.87,8.07-17.86,10.57-.09.09-.19.18-.28.27l-1.24,1.54c-.32.51-2.58,4.23-4.35,11.01-29.65,2.6-39.53,16.01-41.53,19.3-.52.76-.96,1.48-1.36,2.2-1.04,1.9-2.02,4.02-2.9,6.31l.13.05-.29-.04c-.47,1.41-.92,2.84-1.31,4.23-.29.94-.51,1.79-.73,2.6l-.1.41c-.2.75-.41,1.58-.6,2.42l-.04.19c-.23,1.01-.45,2-.64,3-.11.58-.22,1.14-.31,1.66h0s-.07.38-.07.38c-.34,1.78-.62,3.6-.87,5.54-1.59,11.44-1.29,20.8-1.14,23.81,0,.12,0,.23,0,.33-1.13,8.21-9.54,70.13-8.13,90.52.14,2.21.42,4.09.86,5.68,1.96,7.26,6,15.19,9.56,22.19,2.22,4.35,5.53,10.84,5.98,13.28-.86,4.75-7.53,26.37-14,47.3-11.83,38.31-26.54,85.98-31.82,111.86l1.77,7.21c.66.81,10.09,12.03,32.72,21.42l75.07,12.61Zm126.33-193.01l2-.19c-.6.31-1.22.53-1.86.69l-.13-.51Zm-4.4.41h.09s3.61.27,3.61.27c-1.23.18-2.49.09-3.71-.27Z"/>
          <path class="cls-11" d="m248.37,131.94s16.98-63.03,18.55-75.43c1.57-12.4-7.08-35.64-13.95-40.48-6.87-4.83-29.61-5.87-40.11-.41-5.03,2.62-8.14,8.79-8.14,8.79,0,0-3.92-7.08-15.72-12.77-11.81-5.68-33.66-2.26-38.8,9.27,0,0-31.59-7.5-49.17,9.91,0,0-3.1,4.92-4.52,14.65,0,0-33.19.6-42.45,17.41-9.26,16.81-7.77,47.11-7.77,47.11,0,0,30.49,25.69,102.2,36.53,71.7,10.84,99.9-14.59,99.9-14.59Z"/>
          <path class="cls-2" d="m141.54,276.16s.02-.07.13-.18c8.35-12.45,69.71-31.95,92.16-35.21.03.01.04-.02.08-.01.04-.02.08-.01.08-.01,22.47-3.23,39.04-15.86,42.25-22.99,1.93-4.27,5.74-19.63,9.6-34.69,2.62-10.22,5.3-20.3,7.49-26.68,5.38-15.8,17.79-35.13,18.63-40.74.85-5.64-3.21-15.92-6.79-19.74-2.9-3.12-24.12-15.65-40.67-27.2-3.78-2.6-7.29-5.15-10.3-7.55-16.36-12.96-33.19-31.48-36.65-32.79-1.16-.43-3.48.36-6.1,2.02-.04.02-.13.07-.21.11-2.74,1.69-5.79,4.26-8.35,7.23-.01.03-.06.09-.07.12-2.36,2.78-4.26,5.91-5.02,9.08,0,0-.07.44-.21,1.26-1.38,11.53,9.96,45.63,41.15,61.56l15.04,1.82.65.09s-3.43,17.7-6.05,20.29c-.05.06-.11.11-.18.12-4.31,2.36-55.5-.75-99.7,14.45,0,0-65.45-15.81-92.65-30.08-.1-.03-.16-.05-.22-.1-2.28-1.2-4.28-2.36-5.95-3.56-.21-.14-.37-.29-.58-.43-1.03-.71-1.91-1.45-2.61-2.2-.09-.06-.14-.12-.2-.17,0,0-9.61,68.79-8.18,89.53.1,1.64.29,2.99.56,3.97,3.58,13.31,15.84,30.66,15.89,37.91.02,7.24-37.18,117.37-46.03,160.77,0,0,25.56,31.41,100.71,31.1,0,0,24.43-144.61,32.33-157.09Z"/>
          <path class="cls-14" d="m51.6,67.78c-.44,1.3-.85,2.64-1.21,3.92-.26.85-.47,1.64-.69,2.47-.46,1.72-.85,3.46-1.19,5.14-.12.61-.23,1.22-.34,1.79-.37,1.89-.64,3.7-.87,5.49-1.49,10.74-1.22,19.59-1.06,22.44,0,.61.03.94.03.94.06.05.11.11.2.17.77.74,1.66,1.48,2.61,2.2.21.14.37.29.58.43,23.75,18,88.08,37.44,88.08,37.44l-20.02,13.14s30.43-8.36,63-14.15c14.59-2.62,29.58-4.68,42.47-5.28,12.56-.56,23.1.3,29.36,3.45,27.04,13.61,33.29,35.69,33.29,35.69,2.62-10.22,5.3-20.3,7.49-26.68,5.38-15.8,17.79-35.13,18.63-40.74-8.89,6.06-55.24-8.37-60.49-12.03-24.55-17.11-42.79-60.56-40.95-67.23,1.72-6.27,6.39-7.83,6.98-8.01-2.22.35-4.23,1.06-6.06,2-.04.02-.13.07-.21.11-3.51,1.85-6.27,4.54-8.35,7.23-.01.03-.06.09-.07.12-3.53,4.6-5.02,9.08-5.02,9.08,0,0-.07.44-.21,1.26-.13.64-.3,1.55-.53,2.63-2.55,12.78-10.89,52.65-17.79,56.1-8.21,4.09-48.06-6.86-48.63-13.84-.58-6.94,19.57-72.16,19.57-72.16-8.43,19.05-23.28,71.55-24.81,74.3-1.53,2.75-32.37-1.69-34.02-7.82-1.6-5.72,4.33-37.53,5.05-41.5-4.93,19.2-10.57,49.06-10.57,49.06-6.18,2.5-27.81-3.94-29.79-6.69-1.83-2.53-4.05-17.72-4.41-20.15-.04-.23-.04-.33-.04-.33Z"/>
          <path class="cls-1" d="m254.18,61.16s.44,2.64-1.34,4.35c-1.78,1.71-24.4-5.01-32.98-14.03-8.58-9.01-.2-21.66-.2-21.66l34.51,31.34Z"/>
          <path class="cls-6" d="m273.93,113.95l-20.17-2.39-1.25,4.73s4.86-.67,21.42-2.34Z"/>
          <path class="cls-12" d="m52.79,107.95l-6.53,2.03s46.28,29.68,91.48,40.24c0,0,90.46-10,110.62-18.27l6.05-20.29s-12.69-1.45-15.7-1.91c-3.01-.46-10.2-5.33-10.2-5.33,0,0-8.35,9.77-15.59,9.79-2.97.01-7.12-1.16-11.09-2.67-5.7-2.19-11.05-5.13-12.05-6.51-1.78-2.34,2.4-24.71,2.4-24.71,0,0-12.27,45.64-15.21,49.24-2.92,3.64-44.97,8.05-49-4.5,0,0-24.47-.5-30.76-5.74-6.29-5.24-6.7-13.52-6.7-13.52,0,0-4.65,11.45-14.38,10.74-9.72-.75-16.86-6.14-19.31-10.72-.23-.43-.45-.96-.68-1.61-2.2-5.98-5-20.44-5.35-22.41l1.41,18.37.6,7.81Z"/>
          <path class="cls-12" d="m109.21,433.25s24.43-144.61,32.33-157.09c7.92-12.44,69.85-32.15,92.36-35.4-3.06-.05-101.02-1.7-109.34,3.71-8.51,5.53-39,132.2-15.35,188.79Z"/>
          <path class="cls-4" d="m141.54,276.16s.02-.07.13-.18c.06-.09.15-.18.22-.27,2.24-2.74,17.26-17.52,91.94-34.94-2.62.01-87.48,1.05-129.75-4.63-42.98-5.83-66-36.63-66-36.63.1,1.64.29,2.99.56,3.97,3.58,13.31,15.84,30.66,15.89,37.91.02,7.24-37.18,117.37-46.03,160.77,0,0,25.56,31.41,100.71,31.1,0,0,24.43-144.61,32.33-157.09Z"/>
          <path class="cls-9" d="m254.18,61.16s-1.03,5.01-12.49,2.36c-13.93-3.22-22.88-13.29-22.88-13.29,0,0,8.32,12.22,28.56,15.59,20.24,3.37,6.82-4.66,6.82-4.66Z"/>
          <path class="cls-5" d="m223.92,33.68s-6.03,4.44-5.11,16.55c0,0-7.37-6.92.86-20.42l4.25,3.86Z"/>
          <path class="cls-5" d="m248.78,56.25s-1.8,3.95,1.02,7.87c0,0,3.54-.67,4.38-2.96l-5.4-4.91Z"/>
          <path class="cls-6" d="m51.6,67.78c-.44,1.3-.85,2.64-1.21,3.92-.26.85-.47,1.64-.69,2.47-.46,1.72-.85,3.46-1.19,5.14-.12.61-.23,1.22-.34,1.79-.37,1.89-.64,3.7-.87,5.49-1.49,10.74-1.22,19.59-1.06,22.44,0,.61.03.94.03.94.06.05.11.11.2.17.77.74,1.66,1.48,2.61,2.2.21.14.37.29.58.43,23.75,18,88.08,37.44,88.08,37.44l110.62-18.27,6.05-20.29s-12.7-1.06-18.35-3.05c-5.65-1.99-30.97-18.62-39.03-57.79-2.55,12.78-10.89,52.65-17.79,56.1-8.21,4.09-48.06-6.86-48.63-13.84-.58-6.94,19.57-72.16,19.57-72.16-8.43,19.05-23.28,71.55-24.81,74.3-1.53,2.75-32.37-1.69-34.02-7.82-1.6-5.72,4.33-37.53,5.05-41.5-4.93,19.2-10.57,49.06-10.57,49.06-6.18,2.5-27.81-3.94-29.79-6.69-1.83-2.53-4.05-17.72-4.41-20.15-.04-.23-.04-.33-.04-.33Z"/>
          <polygon class="cls-6" points="252.62 59.73 260.81 39.71 258.32 54.31 263.44 56.78 262.64 67.42 252.62 59.73"/>
          <path class="cls-6" d="m131.84,129.75s-2.48-22.15-1.22-36.67c1.26-14.52,8.4-40.96,8.4-40.96,0,0-11.96,36.01-13.64,43.1-1.68,7.09,2.6,29.83,2.6,29.83,0,0,1.82,2.54,3.86,4.7Z"/>
          <path class="cls-6" d="m90.52,105.8s-.24-11.04.57-21.36c.81-10.31,5.4-38.97,5.4-38.97,0,0-9.07,42.51-9.32,48.1-.25,5.58,3.35,12.22,3.35,12.22Z"/>
          <path class="cls-6" d="m228.51,104.4s-25.58-18.43-31.47-53.59c0,0,2.42,41.16,23.95,60.35l7.52-6.76Z"/>
          <path class="cls-6" d="m197.03,50.81s5.7-12.06,13.36-13.1c0,0,.19-5.33,7.09-9.33,0,0-16.09,2.34-20.45,22.42Z"/>
          <path class="cls-1" d="m307.05,98.45s-10.27.76-12.97,8.81c-2.7,8.05,17.87,8.39,17.87,8.39,0,0,.31-12.04-4.9-17.2Z"/>
          <path class="cls-3" d="m252.96,16.04s-12.99,3.45-24.73,3.67c-11.74.22-15.39-4.07-15.39-4.07,0,0,20.45-8.38,40.11.41Z"/>
          <path class="cls-3" d="m148.27,20.53s-8.17,4.84-22.76,8.19c-14.6,3.35-23.83,1.46-23.83,1.46,0,0,8.29-13.7,46.59-9.65Z"/>
          <path class="cls-3" d="m188.99,11.65s-12.08,2.32-21.78,3.56c-9.71,1.24-12.7.22-12.7.22,0,0,11.83-12.24,34.48-3.78Z"/>
          <path class="cls-3" d="m96.49,45.47s-9.44,1.86-22.3,5.77c-8.44,2.57-19.06,9.89-19.06,9.89,0,0,7.85-14.77,41.36-15.66Z"/>
          <path class="cls-7" d="m277.99,168.47s-.24,26.79-26.4,43.81c-26.16,17.01-175.1-14.22-182.72-22.48-7.62-8.27,124.88-52.61,165.48-45.93,40.6,6.68,43.64,24.61,43.64,24.61Z"/>
          <path class="cls-6" d="m141.89,275.71s-18.45-8.55-17.33-31.24l109.27-3.7s-78.62,20.62-91.94,34.94Z"/>
          <path class="cls-15" d="m248.36,131.94s-6.78-13.86-10.65-17.43c-3.88-3.57-13.12-6.59-13.12-6.59l3.92-3.53s6.21,4.34,10.21,5.34c3.99,1,15.7,1.91,15.7,1.91,0,0-3.49,17.47-6.05,20.29Z"/>
          <path class="cls-15" d="m56.82,105.79s.62,9.46,31.63,18.57c31.03,9.15,76.7,12.19,84.05,9.95,6.16-1.86,22.63-17.09,29.33-22.79-5.7-2.19-11.05-5.13-12.05-6.51-1.78-2.34,2.4-24.71,2.4-24.71,0,0-12.27,45.64-15.21,49.24-2.92,3.64-44.97,8.05-49-4.5,0,0-24.47-.5-30.76-5.74-6.29-5.24-6.7-13.52-6.7-13.52,0,0-4.65,11.45-14.38,10.74-9.72-.75-16.86-6.14-19.31-10.72Z"/>
          <path class="cls-15" d="m50.78,81.77l1.41,18.37,3.94,4.04c-2.2-5.98-5-20.44-5.35-22.41Z"/>
          <path class="cls-8" d="m40.96,190.18s1.59-42.01,5.71-75.21c0,0,5.18,38.9-5.71,75.21Z"/>
          <path class="cls-8" d="m21.2,399.06s17.12-85.79,29.8-131.63c0,0-31.15,86.23-37.23,129.33l7.43,2.29Z"/>
          <path class="cls-8" d="m269.76,219.13s-11.02,16.83-32.3,18.4c-21.28,1.57-70.21-.3-70.21-.3,0,0,76.31,2.86,102.51-18.1Z"/>
          <path class="cls-8" d="m103.35,37.88s-8.59,28.56-9.56,46.33c0,0-3.71-19.46,9.56-46.33Z"/>
          <path class="cls-8" d="m61.14,61.8s-5.56,15.11-3.16,26.37c0,0-7.16-14.98,3.16-26.37Z"/>
          <path class="cls-8" d="m156.22,22.78s-15.54,33.68-20.36,65.94c0,0-.48-37.79,20.36-65.94Z"/>
          <path class="cls-8" d="m302.8,97.13s-13.24-13.12-30.25-20.06c0,0,10.6,14.54,30.25,20.06Z"/>
          <path class="cls-8" d="m306.66,122.53s-10.31,9.77-15.47,22.64c-5.16,12.87-8.95,42.72-8.95,42.72,0,0,13.43-48.92,24.42-65.36Z"/>
          <path class="cls-8" d="m107.64,429.14s4.26-100.86,23.86-147.25c0,0-7.36,58.31-23.86,147.25Z"/>
          <path class="cls-13" d="m177.32,120.85c-2.84,5.12-23.81,13.52-35.13,5.73,0,0,17.5-1.75,25.21-2.59,7.72-.84,9.92-3.14,9.92-3.14Z"/>
          <path class="cls-13" d="m123.06,121.44s-28.17.19-30.27-14.94c0,0,15.5,13.94,30.27,14.94Z"/>
          <path class="cls-13" d="m67.92,113.27s-7.82-9.64-11.17-11.05c0,0,1.55,8.21,11.17,11.05Z"/>
          <path class="cls-12" d="m176.9,107.57s-11.63,3.85-27.44-.36c-15.81-4.2-18.84-14.14-18.84-14.14,0,0,18.96,15.4,46.29,14.5Z"/>
          <path class="cls-12" d="m122.32,96.02s-6.19,4.97-15.74,4.06c-9.55-.92-14.23-11.19-14.23-11.19,0,0,12.83,8.52,29.97,7.13Z"/>
          <path class="cls-12" d="m83.93,96.18s-5.89,3.52-12.94,2.21c-7.05-1.31-13.39-8.97-13.39-8.97,0,0,7.48,5.4,26.33,6.76Z"/>
        </g>
      </g>
    </g>
  </g>
</svg>