<?xml version="1.0" encoding="UTF-8"?>
<svg xmlns="http://www.w3.org/2000/svg" xmlns:xlink="http://www.w3.org/1999/xlink" viewBox="0 0 342.63 581.69">
  <defs>
    <style>
      .cls-1 {
        fill: #f5af8f;
      }

      .cls-1, .cls-2, .cls-3, .cls-4, .cls-5, .cls-6, .cls-7, .cls-8, .cls-9, .cls-10, .cls-11, .cls-12, .cls-13, .cls-14, .cls-15, .cls-16 {
        stroke-width: 0px;
      }

      .cls-1, .cls-3, .cls-5, .cls-8, .cls-14 {
        mix-blend-mode: soft-light;
        opacity: .97;
      }

      .cls-2 {
        fill: url(#_Áåçûìÿííûé_ãðàäèåíò_151);
      }

      .cls-3 {
        fill: #f5ee8f;
      }

      .cls-4 {
        fill: #f3bac0;
        opacity: .6;
      }

      .cls-4, .cls-6, .cls-13, .cls-15 {
        mix-blend-mode: multiply;
      }

      .cls-5 {
        fill: #f5d3d2;
      }

      .cls-6 {
        opacity: .5;
      }

      .cls-6, .cls-13, .cls-15 {
        fill: #d87290;
      }

      .cls-7 {
        fill: #b24d61;
      }

      .cls-17 {
        isolation: isolate;
      }

      .cls-8 {
        fill: #f5ffff;
      }

      .cls-9 {
        fill: #e86c7c;
      }

      .cls-10 {
        fill: #fff;
      }

      .cls-11 {
        fill: url(#_Áåçûìÿííûé_ãðàäèåíò_59);
        mix-blend-mode: screen;
      }

      .cls-12 {
        fill: url(#_Áåçûìÿííûé_ãðàäèåíò_152);
      }

      .cls-13 {
        opacity: .3;
      }

      .cls-14 {
        fill: #f5a995;
      }

      .cls-15 {
        opacity: .31;
      }

      .cls-16 {
        fill: #ab3d52;
      }
    </style>
    <linearGradient id="_Áåçûìÿííûé_ãðàäèåíò_152" data-name="Áåçûìÿííûé ãðàäèåíò 152" x1="-2504.92" y1="1178.1" x2="-2504.92" y2="797.51" gradientTransform="translate(2842.22 -125.6) rotate(14.61)" gradientUnits="userSpaceOnUse">
      <stop offset="0" stop-color="#ff8777"/>
      <stop offset=".98" stop-color="#ffb880"/>
    </linearGradient>
    <linearGradient id="_Áåçûìÿííûé_ãðàäèåíò_151" data-name="Áåçûìÿííûé ãðàäèåíò 151" x1="-2501.82" y1="1391.42" x2="-2501.82" y2="1021.58" gradientTransform="translate(2842.22 -125.6) rotate(14.61)" gradientUnits="userSpaceOnUse">
      <stop offset=".02" stop-color="#ffb880"/>
      <stop offset="1" stop-color="#ff8777"/>
    </linearGradient>
    <linearGradient id="_Áåçûìÿííûé_ãðàäèåíò_59" data-name="Áåçûìÿííûé ãðàäèåíò 59" x1="-2550.59" y1="1151.02" x2="-2398.26" y2="1151.02" gradientTransform="translate(2842.22 -125.6) rotate(14.61)" gradientUnits="userSpaceOnUse">
      <stop offset="0" stop-color="#000"/>
      <stop offset=".04" stop-color="#0b0300"/>
      <stop offset=".4" stop-color="#6a1e00"/>
      <stop offset=".69" stop-color="#b03200"/>
      <stop offset=".89" stop-color="#db3f00"/>
      <stop offset="1" stop-color="#ec4400"/>
    </linearGradient>
  </defs>
  <g class="cls-17">
    <g id="Camada_2" data-name="Camada 2">
      <g id="Layer_1" data-name="Layer 1">
        <g>
          <path class="cls-10" d="m120.14,581.69c.86-6.94,2.18-17.3,3.79-29.22l.08-.53c2.33-17.18,4.64-32.8,6.86-46.42l.13-.47.02-.43.06-.38c2.17-13.18,4.23-24.31,6.14-33.13l.34-1.53c3.58-16.14,5.7-19.67,5.98-20.09,5.98-7.21,43.36-21.34,61.33-28.14,13.35-5.05,21.08-8.01,24.68-10.09l.07-.04c11.08-6.47,23.88-19.77,27.94-29.02,1.71-3.84,1.88-9.41.62-19.84-.7-5.91-1.78-12.71-2.83-19.29-1.48-9.26-3.01-18.83-3.24-24.76-.41-10.42,1.08-29.97,1.98-41.66l.17-2.29c23.68-54.76,33.92-74.52,38.36-81.47,1.75-2.76,3.84-5.75,6.59-9.47,2.01-2.73,4.09-5.48,6.3-8.39,14.89-19.64,31.78-41.9,36.32-73.76,3.91-27.32-7.65-39.15-14.89-43.78-10.93-6.98-24.06-6.05-30.9-1.6-2.48,1.63-5.63,4.74-11.76,15.95l-1.01.57-.66,2.58c-6.29,11.86-13.44,27.55-19.21,40.21-3.72,8.16-6.93,15.21-8.44,17.98-1.64,2.99-3.78,6.6-6.04,10.41-1.14,1.92-2.32,3.9-3.49,5.91l-.46.8c-4.17,7.11-9.11,16.05-11.56,23.76-2.13,6.74-16.89,37.72-29.11,61.29-.92-.19-1.86-.38-2.82-.58-2.62-.54-5.4-1.11-8.31-1.71,1.77-15.47,4.61-37.76,8.31-65.18l.05-.44c.02-.18.03-.35.06-.51l.03-.19c.15-1,.27-1.9.37-2.7.09-.62.16-1.18.22-1.65l.05-.38c.11-.67.17-1.16.2-1.42,1.56-11.58,2.77-20.3,3.12-22.76.69-2.17,1.37-4.4,2.01-6.61,6.2-20.79,11.77-46.73,14.92-69.39,5.56-40.08.68-46.56-1.42-49.35C211.18-.55,184.04-1.09,178.17.81c-1.81.59-6.03,1.96-13.18,14.96-2.47,4.5-6.98,13.6-9.37,23.94-2.42,10.36-4.51,25.45-6.35,38.77-.96,6.93-1.86,13.47-2.64,17.93l-.09.51c-.25,1.46-.51,2.95-.73,4.43-.59,3.68-1.15,7.43-1.68,11.05-.89,5.98-2.1,14.17-2.72,15.96-1.23,3.31-1.49,8.36-1.93,18.56-.08,1.94-.17,3.98-.27,6.06l-.06.25v.59s-4.4,37.02-4.4,37.02c-2.45-2.85-5.28-5.24-8.53-6.84-8.71-4.28-19.51-3.71-27.02-2.48-8.05,1.29-19.35,4.59-24.74,9.68-4.08,3.91-9.17,12.44-12.58,18.62-4.74-.92-11.19-1.34-17.94.68-18.67,3.51-31.77,17.73-33.7,29.56-1.76,10.67.95,54.97,1.55,64.26.02,1.21.16,8.41.2,17.23v.7c0,10.82-.12,25.7-.91,33.19-.98,9.21-.54,21.19,1.18,32.39l.28,1.83c.75,4.59,1.67,8.59,2.67,11.57,2.16,6.49,9.38,13.64,19.35,23.04,1.69,1.59,3.78,3.56,5.24,5.03-3.8,16.04-24.69,87.18-38.03,131.8l-1.75,5.85,5.04,3.45c.84.57,8.18,5.54,19.4,11.29h95.7Z"/>
          <path class="cls-12" d="m292.47,178.47c-2.49,3.36-4.82,6.65-6.91,9.93-11.15,17.44-38.51,81.16-52.19,113.57-4.88,11.59-8.02,19.17-8.02,19.17,0,0-41.37,63.45-59.38,71.19-11.2,4.81-64.71-24.38-103.67-50.98-23.59-16.12-41.84-31.28-42.18-37.38,0,0-3.36-52.2-1.65-62.54,1.69-10.38,18.93-29.21,47.6-21.71l.08-.19c1-1.95,9.1-17.55,14.07-22.3,2.89-2.73,11.19-6.01,20.28-7.47,7.78-1.27,16.08-1.18,22,1.73,9.8,4.84,15.15,21.52,17.11,29.12.55,2.08.86,3.45.91,3.79.26-2.08,4.98-45,6.24-58.98.33-3.57.54-7.2.73-10.77.03-.1.01-.17,0-.25.03-.1,0-.17.02-.21,0-.11.01-.17.01-.17.53-10.51.66-19.92,1.72-22.77,1.27-3.39,2.9-16.67,4.82-28.61.26-1.65.54-3.27.81-4.85,2.23-12.87,5.27-40.71,8.89-56.21,3.58-15.47,13.58-31.73,16.99-32.85,3.37-1.09,26.54-.6,33.65,8.77,6.68,8.87-2.26,69.07-14.85,111.29-.71,2.45-1.43,4.83-2.17,7.13,0,0-1.37,9.69-3.24,23.61,0,0-.05.44-.18,1.22-.07.54-.16,1.29-.29,2.17-.09.75-.21,1.6-.35,2.54-.07.4-.11.82-.15,1.26-4.71,34.92-11.54,87.56-10.43,91.78,1.68,6.37,8.5,10.79,13.35,7.55,4.84-3.2,41.5-77.54,45.29-89.52,2.15-6.75,6.66-15.02,11.25-22.82v-.03c3.56-6.07,7.11-11.89,9.66-16.53,4.15-7.56,17.63-39.46,28.1-59.04.02-.07.08-.16.09-.22.04-.02.05-.06.06-.09l.02-.07c.05-.06.06-.09.06-.09,4.06-7.62,7.68-13.28,10.01-14.82,8.42-5.47,38.61-2.58,32.92,37.21-4.89,34.28-25.73,57.48-41.09,78.38Z"/>
          <path class="cls-6" d="m221.53,247.53l-17.27,81.36-113.89,19.78-28.06-7.31c-23.59-16.12-41.84-31.28-42.18-37.38,0,0-3.36-52.2-1.65-62.54l12.83,9.53,1.07-15.71,5.84,13.04s3.12,10.12,5.03,11.29c1.91,1.17,33.39,8.03,40.12-8.37,0,0-10.27-24.49-17.3-31.49l.08-.19c1-1.95,9.1-17.55,14.07-22.3,0,0,6.36,23.72,8.08,35.06,1.73,11.31,45.36,15.76,53.93,6.71l-2.62-18.39,7.87-66.21c.02.07.03.15,0,.25-.05,6.24-.31,57.15,2.44,63.31,2.97,6.54,27.07,9.51,32.13,2.37,3.9-5.52,8.97-38.73,11.12-53.59-4.71,34.92-11.54,87.56-10.43,91.78,1.68,6.37,8.5,10.79,13.35,7.55,4.84-3.2,41.5-77.54,45.29-89.52,2.15-6.75,6.66-15.02,11.25-22.82l-31.11,93.77Z"/>
          <path class="cls-15" d="m292.47,178.47c-2.49,3.36-4.82,6.65-6.91,9.93-11.15,17.44-38.51,81.16-52.19,113.57l-76.77-15.06s-18.93-73.89-16.98-66.29c.55,2.08.86,3.45.91,3.79.26-2.08,4.98-45,6.24-58.98.33-3.57.54-7.2.73-10.77.03-.1.01-.17,0-.25.03-.1,0-.17.02-.21,0-.11.01-.17.01-.17.53-10.51.66-19.92,1.72-22.77,1.27-3.39,2.9-16.67,4.82-28.61l.53-.42s-.89,25.94,5.88,32.17c6.75,6.19,26.56,13.13,38.77-5.21.11-.15.21-.26.31-.38-.71,2.45-1.43,4.83-2.17,7.13,0,0-1.37,9.69-3.24,23.61,0,0-.05.44-.18,1.22-.07.54-.16,1.29-.29,2.17-.09.75-.21,1.6-.35,2.54-.07.4-.11.82-.15,1.26-4.71,34.92-11.54,87.56-10.43,91.78,1.68,6.37,8.5,10.79,13.35,7.55,4.84-3.2,41.5-77.54,45.29-89.52,2.15-6.75,6.66-15.02,11.25-22.82v-.03c3.56-6.07,7.11-11.89,9.66-16.53,4.15-7.56,17.63-39.46,28.1-59.04-2.62,6.83-31.86,82.19-30.23,90.66,1.43,7.47,19.11,15.38,32.3,9.65Z"/>
          <path class="cls-2" d="m111.71,581.69c.87-7.01,2.26-18.02,4-30.84v-.03c5.46-40.18,14.37-98.1,21.32-106.58,10.73-13.12,78.36-34.45,88.33-40.21l.04-.02c9.82-5.73,21.24-17.72,24.52-25.19,1.11-2.49.82-8.29-.04-15.47-1.67-14.21-5.71-33.91-6.13-44.7-.65-16.26,2.98-51.46,2.7-53.75-.27-2.32-9.49-12.91-15.2-14.85-5.71-1.95-21.97-5.06-47.66-10.42-25.66-5.35-45.26-15.31-50.38-15.24-1.06.04-2.2.62-3.31,1.63h-.03v.02s-.05.02-.05.02c-.05.06-.15.17-.29.31-4.11,4.02-8.04,13.33-8.91,19.91-1.11,8.56,28.6,35.84,39.66,39.39,11.05,3.55,36.13,5.2,36.13,5.2,0,0-4.07,17.35-4.75,19.17-.3.76-12.44,3.64-28.04,7.69-.11,0-.19.06-.3.06-3.96,1.04-8.12,2.17-12.36,3.35-18.74,5.16-39.01,11.51-49.42,17.89,0,0-69.51-21.91-81.4-35.05,0,0,.16,7.74.2,17.55l.02.07c-.01,11.91-.14,26.8-.97,34.74-1.07,10.05-.17,22.51,1.4,31.95v.03c.67,4.15,1.49,7.73,2.34,10.27,2.74,8.23,24.6,25.17,25.54,28.44.9,3.29-38.9,136.46-38.9,136.46,0,0,14.59,9.99,34.78,18.19h67.17Z"/>
          <path class="cls-15" d="m129.9,226l-.04.02v-.03s.04,0,.04,0Z"/>
          <path class="cls-15" d="m101.53,339.04c10.41-6.39,30.68-12.73,49.42-17.89-30.21,9.97-54.81,30.89-54.81,30.89-39.02,6.45-63.72,25.16-75.35,36.25-1.58-9.44-2.48-21.9-1.4-31.95.84-7.93.96-22.83.97-34.74l-.02-.07c-.04-9.81-.2-17.55-.2-17.55,11.89,13.15,81.4,35.05,81.4,35.05Z"/>
          <path class="cls-15" d="m150.95,321.14c4.04-1.34,8.16-2.47,12.36-3.35-3.96,1.04-8.12,2.17-12.36,3.35Z"/>
          <path class="cls-15" d="m249.88,363.33c-23.53-10.56-57.63-46.32-57.63-46.32-9.46-1.73-19.18-1.21-28.64.72,15.6-4.05,27.73-6.93,28.04-7.69.69-1.82,4.75-19.17,4.75-19.17,0,0-25.07-1.65-36.13-5.2-11.05-3.55-40.76-30.82-39.66-39.39.87-6.59,4.81-15.89,8.91-19.91-1.8,2.06-9.75,12.21-1.62,24.28,9.12,13.51,67.87,34.52,79.09,32.45,11.19-2.07,39.45-18.21,39.45-18.21.28,2.29-3.34,37.49-2.7,53.75.42,10.79,4.45,30.5,6.13,44.7Z"/>
          <polygon class="cls-6" points="196.4 290.86 216.96 290.68 195.06 296.95 196.4 290.86"/>
          <path class="cls-6" d="m196.4,290.86l-4.75,19.17s-40.68-7.48-90.12,29c0,0-36.57-10.47-56.64-20.84l-9.06-19.48-4.52-47.76,1.07-15.71,5.9,20.83s1.75,20.09,3.1,26.43c1.34,6.34,12.86,18.33,17.73,19.43,4.87,1.1,20.07-2.92,22.48-5.79,2.41-2.87,1.79-44.95,1.79-44.95,0,0-10.8-23.81-17.3-31.49,0,0,18.29,16.59,20.71,21.38,2.41,4.79,3.81,44.76,9.69,50.29,5.88,5.53,22.13,5.77,27.19,3.59,5.06-2.18,14.72-24.79,14.72-24.79,0,0,16.3,13.45,21.88,15.46s36.13,5.2,36.13,5.2Z"/>
          <path class="cls-1" d="m136.44,224.97c-3.16-.9-8.85,11.64-4.17,16.02,4.67,4.38,39.56,11.64,49.49,6.74,9.93-4.9-10.46-12.8-45.31-22.76Z"/>
          <path class="cls-9" d="m133.47,241.83s8.18,5.43,25.45,8.01c17.28,2.59,30.03-1.33,31.52-4.18,1.49-2.86-16.73-8.39-16.73-8.39,0,0,11.17,4.93,9.77,8.58-1.4,3.65-31.41,5.44-50.02-4.02Z"/>
          <path class="cls-5" d="m140.39,225.98s-4.49,8.24-4.57,16.96c0,0-2.37-.83-4-2.44s-2.07-12.63,4.62-15.53l3.95,1.01Z"/>
          <path class="cls-5" d="m173.72,237.27s-3.55,1.28-3.54,3.78c.01,2.5,10.21,6.48,10.21,6.48,0,0,3.33-.29,3.13-2.88-.2-2.59-9.8-7.37-9.8-7.37Z"/>
          <path class="cls-1" d="m80.16,294.58s-3.03,7.46-19.47,6.62c-.73-.05-1.28-.9-1.65-2.29-1.22-4.36-.7-13.74,1.97-19.3l.34-.62c.15-.31.3-.62.48-.89.05-.06.07-.12.11-.15,2.79-3.98,10.24-3.97,14.82.95,2.53,2.7,4.18,6.89,3.75,12.71,0,.03-.02.07,0,.11-.06.9-.17,1.85-.36,2.86Z"/>
          <path class="cls-1" d="m125.34,292.02c-.42.66-.79,1.16-1.15,1.46-2.49,2.13-14.12,5.66-22.59-1.88-.23-.2-.42-.42-.6-.68-.79-1.15-1.1-2.92-1.09-4.99l.03-.1c.1-6.72,3.85-16.95,8.69-22.57,1.59-1.8,3.28-3.15,4.98-3.73,7.36-2.47,13.9,2.08,16.31,7.8.05.08.06.16.08.23.41.99.71,2.01.86,3.03.04.26.08.51.07.79.42,6.33-3.05,16.56-5.59,20.64Z"/>
          <path class="cls-6" d="m129.92,267.32l.5,1.99c-2.19-4.96-11.37-12.59-19.18-6.19-8.27,6.8-10.92,20.48-11.29,22.7.14-8.89,6.66-23.94,13.67-26.3,7.36-2.47,13.9,2.08,16.31,7.8Z"/>
          <path class="cls-6" d="m130.93,271.38l-.52-2.07c.23.45.37.87.44,1.27.04.26.08.51.07.79Z"/>
          <path class="cls-6" d="m80.52,291.61c-.18-2.68-1.42-14.77-12.02-13.88-11.71.99-9.52,20.49-9.45,21.18-1.32-4.77-.64-15.62,2.79-20.81,4.19-6.36,19.94-3.06,18.68,13.51Z"/>
          <path class="cls-5" d="m80.16,294.58s-3.03,7.46-19.47,6.62c-.73-.05-1.28-.9-1.65-2.29,0,0,12.37,1.89,21.12-4.33Z"/>
          <path class="cls-5" d="m125.34,292.02c-.42.66-.79,1.16-1.15,1.46-2.49,2.13-14.12,5.66-22.59-1.88-.23-.2-.42-.42-.6-.68,3.43,1.14,14.77,4.38,24.34,1.11Z"/>
          <path class="cls-16" d="m138.39,270.2s15.68,16.28,21.85,19c6.17,2.72,33.37,3.14,31.41,20.83l4.75-19.17s-27.33-2.29-36.13-5.2c-8.8-2.91-21.88-15.46-21.88-15.46Z"/>
          <path class="cls-16" d="m124.36,294.58s-1.54,2.85-21.09,4.63c-19.55,1.78-40.38,5.67-45.49,4.56-5.11-1.11-15.65-19.11-15.65-19.11,0,0,12.6,17.32,16.99,17.3,4.39-.02,19.23-2.92,22.48-5.79,3.24-2.87,1.86-32.56,1.86-32.56,0,0,4.44,16.92,11.22,24.74,6.78,7.81,23.63,10.43,29.68,6.24Z"/>
          <path class="cls-16" d="m120.61,246.28s.33,10.45,15.88,28.18l9.91,2.58s-17.63-12.65-25.78-30.76Z"/>
          <path class="cls-4" d="m115.72,550.68c-.33-5.35-6.09-119.24,14.55-129.04,20.84-9.85,92.87-17.6,95.09-17.62-9.97,5.76-77.6,27.1-88.33,40.21-6.95,8.48-15.83,66.28-21.31,106.44Z"/>
          <path class="cls-4" d="m111.71,581.69c.87-7.01,2.26-18.02,4-30.84v-.03c5.46-40.18,14.37-98.1,21.32-106.58,10.73-13.12,78.36-34.45,88.33-40.21,0,0-106.63,14.72-144.86,9.64-38.23-5.08-57.38-15.06-57.38-15.06,2.74,8.23,24.6,25.17,25.54,28.44.9,3.29-38.9,136.46-38.9,136.46,0,0,14.59,9.99,34.78,18.19h67.17Z"/>
          <path class="cls-6" d="m225.36,404.02c-9.97,5.76-77.6,27.1-88.33,40.21l-6.76-22.59c20.84-9.85,92.87-17.6,95.09-17.62Z"/>
          <path class="cls-11" d="m73.43,384.63c-5.13,11.96,84.11,26.05,127.63,9.3,30.29-11.66,34.83-24.8,35.16-31.55.33-6.75-28.76-36.74-55.65-40.08-26.89-3.34-92.46,28.13-107.14,62.33Z"/>
          <path class="cls-7" d="m86.37,364.04s24.92-41.99,105.27-54c0,0-77.08-5.66-105.27,54Z"/>
          <path class="cls-3" d="m85.88,195.95s25.66,3.11,37.04-1.33c0,0-17.64-9.57-37.04,1.33Z"/>
          <path class="cls-3" d="m34.74,226.22s19.77,3.47,31.34-6.48c0,0-18.86-8.24-31.34,6.48Z"/>
          <path class="cls-3" d="m181.5,10.97s19.21,8.97,32.91,6.57c0,0-17.02-11.5-32.91-6.57Z"/>
          <path class="cls-3" d="m300.64,62.88s21.87,14.03,30.91,27.02c0,0,.59-13.64-7.21-20.85-7.8-7.21-23.69-6.18-23.69-6.18Z"/>
          <path class="cls-13" d="m45.5,260.3s9.19,5.39,22.1,5.76c12.92.37,14.97-13.2,14.97-13.2,0,0-9.58,13.25-37.07,7.44Z"/>
          <path class="cls-13" d="m93.28,237.95s16.79,9.84,28,11.71c0,0-.57-3.02-.04-5.82,0,0-6.49.5-27.97-5.89Z"/>
          <path class="cls-14" d="m42.73,265.02l6.87,26.42s-6.66-7.88-6.63-10.01c.03-2.14-.24-16.41-.24-16.41Z"/>
          <path class="cls-8" d="m192.79,401.39s23.68,1.1,29.15-2.02c5.47-3.12,24.22-14.42,26.39-22.07,2.17-7.66-5.1-50.66-5.1-50.66,0,0,3.57,38.5-2.08,48.78-5.66,10.28-26.27,23.59-48.35,25.97Z"/>
          <path class="cls-8" d="m41.59,576.02s-21.7-12.16-25.06-18.07c-3.36-5.91,35.21-123.62,35.21-123.62,0,0-29.46,110.47-25.27,121.22,4.19,10.74,15.11,20.47,15.11,20.47Z"/>
          <path class="cls-8" d="m25.34,319.18s-5.83,50.17-2.56,67.25c3.27,17.08,24.46,32.86,24.46,32.86,0,0-14.65-14.91-18.74-38.39-4.09-23.48-3.16-61.72-3.16-61.72Z"/>
          <path class="cls-8" d="m178.85,15.16s-7.27,9.16-12.02,30.8c-4.75,21.63-14.48,87.22-14.48,87.22,0,0,24.59-111.62,26.5-118.01Z"/>
          <path class="cls-8" d="m329.73,96.86s-21.13,56.4-43.41,81.43c0,0,22.28-20.61,33.99-45.28,11.71-24.67,9.42-36.15,9.42-36.15Z"/>
          <path class="cls-8" d="m107.85,581.69c2.93-33.86,19.92-127.54,19.92-127.54-17.94,49.93-19.95,112.02-20.17,127.54h.25Z"/>
          <path class="cls-8" d="m192.13,242.07s17.08,7.9,26.52,9.03c9.44,1.13,12.6-1.07,12.6-1.07l-39.12-7.96Z"/>
          <path class="cls-1" d="m246.45,264.88s-8.89.08-14.51-3.92c-5.61-4-.7-10.93-.7-10.93,0,0,7.75,4.27,15.2,14.85Z"/>
          <path class="cls-6" d="m120.61,246.28l3.37-4.25s2.8-13.92,9.22-17.66c0,0-8.64.76-12.59,21.91Z"/>
        </g>
      </g>
    </g>
  </g>
</svg>