<?xml version="1.0" encoding="UTF-8"?>
<svg id="Camada_2" data-name="Camada 2" xmlns="http://www.w3.org/2000/svg" viewBox="0 0 2492.98 566.11">
  <defs>
    <style>
      .cls-1 {
        fill: #fff;
      }

      .cls-1, .cls-2 {
        stroke-width: 0px;
      }

      .cls-2 {
        fill: #ff8c00;
      }
    </style>
  </defs>
  <g id="Layer_1" data-name="Layer 1">
    <g>
      <g>
        <path class="cls-2" d="m130.07,454.61l1.36-11.21c.36-2.96.54-6.16.54-9.52,0-10.81-1.88-22.47-5.15-31.98L14.01,73.72h126.31c32.13,0,59.38,21.54,68.29,51.06v-51.06h186.39l-112.27,328.17c-3.25,9.48-5.12,21.12-5.12,31.93,0,3.37.18,6.59.55,9.59l1.35,11.2h-149.46Z"/>
        <path class="cls-1" d="m381.02,83.72l-107.74,314.93c-3.6,10.5-5.66,23.27-5.66,35.16,0,3.72.2,7.35.62,10.79h-126.88c.42-3.43.62-7.04.62-10.73,0-11.91-2.07-24.71-5.69-35.23L28.02,83.72h112.3c33.88,0,61.38,27.79,61.38,62.03v132.52h16.92V83.72h162.4m27.98-20h-210.38v24.85c-14.79-15.32-35.46-24.85-58.29-24.85H0l9.11,26.5,108.26,314.93c2.88,8.38,4.6,19.12,4.6,28.73,0,2.95-.16,5.75-.47,8.32l-2.72,22.41h172.02l-2.7-22.4c-.31-2.61-.47-5.43-.47-8.4,0-9.61,1.71-20.32,4.57-28.67l107.74-314.95,9.06-26.47h0Z"/>
      </g>
      <g>
        <path class="cls-2" d="m422.36,454.61l7.24-14.47c6.14-12.29,7.4-25.13,7.4-40.64V128.83c0-13.23-.87-28.37-7.28-40.4l-7.84-14.71h179.46l-7.24,14.47c-6.14,12.29-7.4,25.13-7.4,40.64v270.67c0,13.23.87,28.37,7.28,40.4l7.84,14.71h-179.46Z"/>
        <path class="cls-1" d="m585.15,83.72c-7.19,14.37-8.46,29.04-8.46,45.11v270.67c0,15.41,1.2,31.51,8.46,45.11h-146.61c7.19-14.37,8.46-29.04,8.46-45.11V128.83c0-15.41-1.2-31.51-8.46-45.11h146.61m32.36-20h-212.31l15.69,29.41c5.38,10.09,6.11,23.71,6.11,35.7v270.67c0,14.09-1.08,25.63-6.35,36.17l-14.47,28.94h212.31l-15.69-29.41c-5.38-10.09-6.11-23.71-6.11-35.7V128.83c0-14.09,1.08-25.63,6.35-36.17l14.47-28.94h0Z"/>
      </g>
      <g>
        <path class="cls-2" d="m865.54,539.2c-60.63,0-109.95-56.34-109.95-125.6v-218.38h-52.03c-22.15,0-36.55,4.81-49.71,16.62l-16.68,14.95V73.72h386.53v153.07l-16.68-14.95c-13.17-11.8-27.57-16.62-49.71-16.62h-52.03v182.85c0,32.91,13.64,74.17,51.93,91.28l9.31,4.16-4.34,9.23c-14.66,31.13-58.01,56.46-96.64,56.46Z"/>
        <path class="cls-1" d="m1013.7,83.72v120.67c-16.35-14.66-33.83-19.17-56.39-19.17h-62.03v192.85c0,40.04,18.28,82.73,57.85,100.41-13.02,27.66-52.47,50.71-87.59,50.71-55.17,0-99.95-51.79-99.95-115.6v-228.38h-62.03c-22.56,0-40.04,4.51-56.39,19.17v-120.67h366.53m20-20h-406.53v185.47l33.35-29.9c11.29-10.12,23.35-14.06,43.04-14.06h42.03v208.38c0,35.66,12.13,69.33,34.16,94.81,10.95,12.67,23.77,22.65,38.11,29.66,15.08,7.38,31.13,11.13,47.69,11.13,42.84,0,89.27-27.32,105.69-62.2l8.69-18.45-18.62-8.32c-33.96-15.18-46.01-53.74-46.01-82.15v-172.85h42.03c19.68,0,31.75,3.94,43.04,14.06l33.35,29.9V63.72h0Z"/>
      </g>
      <g>
        <path class="cls-2" d="m1239.26,457.43c-105.01,0-190.45-86.7-190.45-193.27,0-38.99,11.41-76.58,32.99-108.7,21.07-31.36,50.42-55.57,84.88-70.01l13.89-5.82,13.77-69.63h179.29l-88.75,66.49.8.2c40.45,10.29,77.05,34.35,103.06,67.74,26.81,34.41,40.97,75.81,40.97,119.73,0,106.57-85.43,193.27-190.45,193.27Z"/>
        <path class="cls-1" d="m1343.59,20l-123.44,92.48h-35.89l18.28-92.48h141.05m-60.39,66.38c78.37,19.94,136.5,91.99,136.5,177.78,0,101.2-80.88,183.27-180.45,183.27s-180.45-82.07-180.45-183.27c0-76.48,46.19-142.03,111.73-169.49l-6.86,34.72h62.11l57.41-43.01m-23.08,230.85l14.65-8.46-56.39-97.67-14.65,8.46,56.39,97.67M1403.64,0h-217.53l-3.19,16.12-11.14,56.35-8.98,3.76c-36.26,15.2-67.15,40.67-89.31,73.66-22.69,33.77-34.69,73.29-34.69,114.28,0,27.39,5.29,53.98,15.73,79.02,10.08,24.19,24.52,45.93,42.9,64.59,18.4,18.68,39.84,33.36,63.71,43.62,24.75,10.64,51.03,16.03,78.1,16.03s53.34-5.39,78.1-16.03c23.88-10.26,45.31-24.94,63.71-43.62,18.38-18.67,32.82-40.4,42.9-64.59,10.44-25.05,15.73-51.63,15.73-79.02,0-23.23-3.84-46.03-11.42-67.76-7.33-21.01-17.98-40.56-31.66-58.12-13.55-17.4-29.7-32.35-47.99-44.46-13.2-8.74-27.27-15.82-42-21.15l48.96-36.68L1403.64,0h0Z"/>
      </g>
      <g>
        <path class="cls-2" d="m1773.54,556.11c-36.01,0-70.06-18.08-95.88-50.91-18.49-23.51-30.94-52.4-36.36-83.69v33.09h-170.11l7.24-14.47c6.14-12.29,7.4-25.13,7.4-40.64V128.83c0-13.23-.87-28.37-7.28-40.4l-7.84-14.71h213.89c27.78,0,54,8.36,73.85,23.54,20.64,15.79,32.01,37.01,32.01,59.77,0,24.23-11.92,46.85-33.55,63.7-10.75,8.37-23.27,14.81-36.89,19.08,21.57,4.2,41.39,13.46,57.46,27.09,23.01,19.5,35.68,45.56,35.68,73.39v54.7c0,35.47,16.29,80.93,52.07,96.92l9.31,4.16-4.34,9.23c-15.71,33.36-60.51,50.81-96.64,50.81Z"/>
        <path class="cls-1" d="m1684.59,83.72c52.92,0,95.86,32.84,95.86,73.31,0,43.58-45.41,78.94-101.36,78.94h-31.01v11.28h45.11c60.9,0,109.96,41.73,109.96,93.04v54.7c0,40.04,18.42,88.36,57.99,106.05-13.02,27.66-52.47,45.07-87.59,45.07-67.62,0-125.32-72-125.32-160.71v-78.94h-16.92v138.15h-143.93c7.19-14.37,8.46-29.04,8.46-45.11V128.83c0-15.41-1.2-31.51-8.46-45.11h197.22m0-20h-230.55l15.69,29.41c5.38,10.09,6.11,23.71,6.11,35.7v270.67c0,14.09-1.08,25.63-6.35,36.17l-14.47,28.94h188.06c6.76,17.01,15.73,32.79,26.74,46.78,13.28,16.88,28.77,30.22,46.06,39.65,18.35,10,37.75,15.08,57.69,15.08s42.27-5.05,60.91-14.22c21.15-10.4,36.63-25.04,44.78-42.34l8.69-18.45-18.62-8.32c-31.71-14.17-46.15-55.44-46.15-87.79v-54.7c0-15.67-3.61-30.85-10.72-45.11-6.74-13.52-16.33-25.6-28.49-35.91-10.39-8.81-22.22-15.93-35.01-21.2,4.95-2.84,9.67-5.99,14.12-9.45,11.5-8.95,20.58-19.49,27.01-31.32,6.9-12.7,10.4-26.24,10.4-40.27s-3.38-26.17-10.04-38.21c-6.17-11.16-14.89-21.08-25.9-29.51-21.58-16.5-49.96-25.59-79.92-25.59h0Z"/>
      </g>
      <g>
        <path class="cls-2" d="m1868.73,454.61l7.24-14.47c6.14-12.29,7.4-25.13,7.4-40.64V128.83c0-13.23-.87-28.37-7.28-40.4l-7.84-14.71h179.46l-7.24,14.47c-6.14,12.29-7.4,25.13-7.4,40.64v270.67c0,13.23.87,28.37,7.28,40.4l7.84,14.71h-179.46Z"/>
        <path class="cls-1" d="m2031.52,83.72c-7.19,14.37-8.46,29.04-8.46,45.11v270.67c0,15.41,1.2,31.51,8.46,45.11h-146.61c7.19-14.37,8.46-29.04,8.46-45.11V128.83c0-15.41-1.2-31.51-8.46-45.11h146.61m32.36-20h-212.31l15.69,29.41c5.38,10.09,6.11,23.71,6.11,35.7v270.67c0,14.09-1.08,25.63-6.35,36.17l-14.47,28.94h212.31l-15.69-29.41c-5.38-10.09-6.11-23.71-6.11-35.7V128.83c0-14.09,1.08-25.63,6.35-36.17l14.47-28.94h0Z"/>
      </g>
      <g>
        <path class="cls-2" d="m2363.23,482.76c-46.95,0-85.14-33.56-85.14-74.8v-2.42c-8.92,28.37-36.2,49.08-68.38,49.08h-135.09l122.91-328.44c2.44-6.53,3.63-12.04,3.63-16.84,0-7.24-2.65-13.03-8.33-18.22l-19.04-17.38h206.08l-19.04,17.39c-5.7,5.2-8.36,11.01-8.36,18.28,0,4.8,1.18,10.29,3.61,16.79l123.89,331.29-9.94,3.23c-41.92,13.62-74.41,22.06-106.78,22.06Z"/>
        <path class="cls-1" d="m2354.07,83.72c-8.71,7.95-11.61,16.93-11.61,25.66,0,7.16,1.95,14.15,4.24,20.3l120.23,321.51c-38.85,12.62-71.62,21.57-103.69,21.57-39.61,0-75.14-27.59-75.14-64.8v-98.68h56.39v-16.92h-138.72v16.92h65.41v76.13c0,32.68-27.54,59.21-61.46,59.21h-120.68l117.85-314.94c2.3-6.16,4.26-13.17,4.26-20.34,0-8.72-2.9-17.67-11.59-25.61h154.52m51.57-20h-257.65l38.08,34.77c3.61,3.29,5.08,6.43,5.08,10.84,0,3.58-.98,7.95-3,13.34l-117.85,314.93-10.11,27.01h149.51c25.54,0,48.37-11.49,63.32-29.42,4.9,13.01,13.37,24.8,24.96,34.48,17.84,14.89,41.01,23.09,65.24,23.09,33.69,0,67.02-8.63,109.87-22.55l19.87-6.46-7.32-19.57-120.23-321.51c-2-5.36-2.98-9.71-2.98-13.29,0-4.43,1.48-7.59,5.1-10.89l38.09-34.77h0Z"/>
      </g>
    </g>
  </g>
</svg>